<svg width="88" height="60" viewBox="0 0 88 60" fill="none" xmlns="http://www.w3.org/2000/svg">
<path d="M43.8252 0.732953C43.3383 1.49034 37.9915 9.99292 37.4054 10.9216C37.1259 11.3815 32.6808 18.3873 31.2742 20.5964C30.8144 21.3177 30.3906 21.9939 30.3365 22.1111C30.2734 22.2283 30.1922 22.3095 30.1471 22.2915C30.066 22.2644 28.6233 19.9201 24.8093 13.6085C23.9708 12.22 23.0962 10.7774 22.8708 10.4077C22.6454 10.038 21.9872 8.95602 21.4191 8.0183C20.8511 7.07157 20.3372 6.25106 20.2831 6.19697C20.1839 6.08877 19.715 6.81009 16.7756 11.5798C16.3338 12.3012 15.874 13.0315 15.7658 13.2028C15.6486 13.3741 14.9182 14.5553 14.1428 15.8176C13.3584 17.0799 12.1411 19.0455 11.4378 20.1906C10.7255 21.3267 9.14765 23.8874 7.9214 25.871C6.69515 27.8547 5.59514 29.6219 5.48694 29.7932C4.69348 31.0104 0.933594 37.1056 0.933594 37.1777C0.933594 37.2409 6.614 37.322 17.7945 37.3941C20.1749 37.4122 20.5445 37.4302 20.5355 37.5474C20.5265 37.6646 19.715 38.972 16.1535 44.5623C15.7658 45.1754 15.4502 45.7074 15.4502 45.7434C15.4502 45.7795 19.6429 45.8426 24.7643 45.8697C42.2293 45.9869 58.8557 46.1041 65.564 46.1672C69.2428 46.1943 72.2543 46.1943 72.2543 46.1672C72.2543 46.1041 71.9658 45.6262 70.6764 43.5434C68.9903 40.8294 68.4674 39.9819 68.0346 39.2606C67.8092 38.8909 67.5567 38.4761 67.4575 38.3409C67.3673 38.2146 67.2952 38.0704 67.2952 38.0253C67.2952 37.9802 68.0436 37.9622 68.9903 37.9712C69.919 37.9892 74.4633 38.0614 79.0888 38.1425C83.7233 38.2146 87.5193 38.2687 87.5463 38.2507C87.5644 38.2327 87.357 37.854 87.0955 37.4122C86.266 36.0146 82.3438 29.4235 81.92 28.7112C81.6946 28.3415 81.1266 27.3858 80.6397 26.5923C80.1618 25.7989 79.3774 24.5005 78.9085 23.7071C77.6732 21.6242 74.6256 16.5029 72.1822 12.3913C71.01 10.4347 69.7928 8.37896 69.4772 7.83797C69.1526 7.28797 68.8461 6.79206 68.7829 6.72894C68.7018 6.63878 68.3772 7.0896 67.2591 8.84782C66.4747 10.0741 65.3927 11.7692 64.8517 12.6167C62.0296 16.9988 59.7213 20.6234 58.7836 22.1201C58.441 22.6702 58.1344 23.121 58.1074 23.121C58.0803 23.121 57.9541 22.9497 57.8369 22.7333C57.5844 22.2734 57.6295 22.3456 53.6712 15.9528C53.3016 15.3668 52.968 14.8077 52.9139 14.7176C52.7516 14.4291 51.6515 12.6438 49.4425 9.10029C48.2433 7.16173 47.0892 5.29531 46.8728 4.95269C45.8539 3.29365 44.1047 0.444424 44.0777 0.417374C44.0596 0.399341 43.9424 0.534589 43.8252 0.732953ZM44.799 16.1873C45.2318 16.3496 45.4031 16.4848 45.9711 17.1611C46.7556 18.0717 47.6121 19.2619 47.7384 19.5685C47.8015 19.7578 47.7835 19.8029 47.5941 19.8931C47.4679 19.9472 47.3507 19.9742 47.3416 19.9562C47.3236 19.9381 46.972 19.4603 46.5662 18.9012C46.1515 18.3512 45.8088 17.8914 45.7908 17.8914C45.7638 17.8914 45.5564 18.0176 45.3219 18.1619C44.7719 18.5135 44.4023 18.6127 43.6629 18.6127C42.9867 18.6127 42.5539 18.4414 42.0129 17.9455L41.6612 17.6209L41.2916 17.9455C39.5333 19.5054 39.1637 20.2718 39.1637 22.3636V23.5448L38.9202 23.653C38.4964 23.8423 38.4514 23.689 38.5415 22.2644C38.6768 20.0463 38.8391 19.4422 39.5423 18.5947C41.2104 16.557 43.2752 15.6192 44.799 16.1873ZM19.9675 20.2177C20.2109 20.4341 20.247 20.5062 20.1839 20.7587C20.1478 20.9209 20.0216 21.1193 19.9044 21.2005C19.7421 21.2996 19.688 21.4169 19.688 21.6242C19.697 21.7775 19.6339 22.1021 19.5437 22.3365C19.3904 22.7784 19.3904 22.7784 19.6068 22.9947L19.8232 23.2021L20.238 22.9316C20.6527 22.6702 21.5093 22.3095 21.7347 22.3095C21.9511 22.3095 21.8519 22.4447 21.5183 22.6251C21.329 22.7243 20.8691 23.1029 20.4904 23.4546C20.1117 23.8153 19.7781 24.1128 19.7421 24.1128C19.6248 24.1128 18.8855 23.5267 18.8765 23.4366C18.8765 23.3825 18.9576 23.0849 19.0568 22.7693C19.156 22.4267 19.2011 22.1472 19.156 22.0931C19.1109 22.039 19.0568 21.8947 19.0388 21.7775C19.0117 21.5611 19.0117 21.5611 18.6961 21.8767C18.5248 22.057 18.2634 22.3456 18.1281 22.5259C17.8576 22.8595 17.6142 22.9497 17.6142 22.7152C17.6142 22.6431 17.7494 22.3275 17.9117 22.021C18.1281 21.5972 18.2994 21.3988 18.633 21.2005C18.9757 20.9841 19.0748 20.8578 19.156 20.5603C19.2462 20.2177 19.4355 19.9652 19.6158 19.9652C19.6519 19.9652 19.8142 20.0824 19.9675 20.2177ZM48.1802 20.5332C48.1802 20.7406 48.2162 21.0562 48.2703 21.2275C48.3335 21.4349 48.3244 21.7054 48.2523 22.0841C48.1982 22.3816 48.1441 22.9767 48.1441 23.4095C48.1351 24.1579 48.1261 24.212 47.8646 24.4644C47.5671 24.762 47.4138 24.789 46.1785 24.744C45.7367 24.7349 45.4662 24.6808 45.4662 24.6177C45.4572 24.5636 45.4572 24.3562 45.4662 24.1579C45.4752 23.9595 45.4211 23.5628 45.349 23.2743C45.2228 22.8054 45.2228 22.6972 45.34 22.3726C45.5023 21.9128 45.5113 21.5792 45.376 21.2816C45.2408 21.0021 45.4031 20.7496 45.6916 20.7947C45.9801 20.8398 46.1424 21.498 46.0162 22.1742C45.9531 22.5529 45.9441 22.8144 46.0162 23.0308C46.0613 23.2021 46.1064 23.4907 46.1064 23.662V23.9775L46.6293 24.0046C47.0892 24.0226 47.1793 23.9956 47.3597 23.8062C47.549 23.5989 47.558 23.5538 47.4679 23.13C47.3867 22.7333 47.3957 22.6161 47.5671 22.1742C47.7564 21.6874 47.7564 21.6513 47.6121 21.1914C47.3597 20.407 47.4408 20.1455 47.9277 20.1455C48.1621 20.1455 48.1802 20.1726 48.1802 20.5332ZM43.3834 21.1914L43.7801 21.6242L43.717 22.1652C43.69 22.4718 43.6719 23.0579 43.6719 23.4816C43.6809 24.3923 43.5547 24.6358 42.9055 24.8882C42.5539 25.0144 42.4367 25.0235 42.0309 24.9333C41.553 24.8251 40.6063 24.753 39.5784 24.744C39.2809 24.7349 38.9833 24.6899 38.9202 24.6358C38.7218 24.4735 38.785 24.1308 39.0284 23.9685C39.2448 23.8243 39.2809 23.8243 39.6325 23.9866C39.9842 24.1398 40.5522 24.203 41.9498 24.212C42.626 24.221 42.7883 24.0407 42.8785 23.1841C42.9145 22.8325 42.9686 22.3636 43.0047 22.1562C43.0588 21.8046 43.0408 21.7505 42.7342 21.4439C42.4367 21.1464 42.3826 21.1283 42.0309 21.1824C41.526 21.2636 41.3457 21.4529 41.2735 21.9669C41.2284 22.2915 41.2465 22.4538 41.3637 22.6251C41.544 22.8956 41.8416 22.9046 41.9948 22.6431C42.076 22.5079 42.058 22.4447 41.8866 22.3095C41.7153 22.1652 41.6973 22.1021 41.7784 21.9488C41.9317 21.6693 42.3375 21.7054 42.5268 22.03C42.7432 22.3997 42.644 23.0669 42.3375 23.3013C42.0309 23.5448 41.2555 23.5538 40.994 23.3103C40.7866 23.121 40.6514 22.3816 40.7506 21.9759C40.976 21.0472 41.517 20.6505 42.4547 20.7226C42.9686 20.7587 43.0137 20.7857 43.3834 21.1914ZM23.1593 22.6972L23.8536 23.3554L23.6462 23.698C23.511 23.9415 23.4118 24.0136 23.3036 23.9685C23.2224 23.9415 22.9159 23.8333 22.6183 23.7251C21.9872 23.5177 21.9511 23.4997 22.1134 23.4005C22.1765 23.3554 22.411 23.3825 22.6544 23.4546C22.8798 23.5267 23.1413 23.6079 23.2315 23.6349C23.3306 23.671 23.3847 23.6349 23.3847 23.5357C23.3847 23.4546 23.3487 23.3915 23.3036 23.3915C23.2585 23.3915 23.0151 23.2292 22.7626 23.0308C22.4019 22.7423 22.3028 22.607 22.3028 22.4087C22.3028 22.2013 22.3659 22.039 22.447 22.039C22.456 22.039 22.7716 22.3365 23.1593 22.6972ZM70.2707 22.7152C70.3067 22.7423 70.3698 22.9316 70.3969 23.157C70.433 23.3734 70.5141 23.6259 70.5862 23.7161C70.7215 23.8784 70.7305 23.8784 70.9289 23.653C71.3166 23.1931 72.065 23.0218 72.5428 23.2652C72.8133 23.4095 72.8223 23.4185 72.66 23.5357C72.5699 23.6079 72.2723 23.662 72.0109 23.662C71.6322 23.662 71.5149 23.698 71.4789 23.8153C71.4518 23.9054 71.3526 24.1579 71.2715 24.3833C71.1182 24.771 71.1182 24.8071 71.2805 25.303C71.6322 26.3489 72.3354 26.6915 72.8945 26.0874C73.2191 25.7448 73.2371 25.294 72.9756 24.4644C72.7953 23.8964 72.8223 23.698 73.0838 23.7972C73.3182 23.8874 73.4986 24.3923 73.5887 25.2399C73.6969 26.1776 73.6519 26.3038 73.0658 26.6915C72.7592 26.8989 72.633 26.926 72.2092 26.8899C71.5059 26.8268 71.3076 26.6735 70.7756 25.7268C70.6223 25.4653 70.5502 24.5095 70.6674 24.2751C70.7215 24.1579 70.6764 24.1128 70.442 24.0677C70.1985 24.0136 70.1174 24.0407 69.9912 24.1939C69.883 24.3292 69.7387 24.3833 69.4682 24.3833C69.0624 24.3833 68.9813 24.2931 68.8821 23.7161C68.819 23.4095 68.792 23.3734 68.5936 23.4185C68.4493 23.4456 68.3772 23.4185 68.3772 23.3374C68.3772 23.2652 68.4403 23.2111 68.5124 23.2111C68.5846 23.2111 68.6477 23.1661 68.6477 23.121C68.6477 23.0669 68.837 22.9316 69.0805 22.8054C69.4682 22.607 70.0272 22.562 70.2707 22.7152ZM21.7978 23.5898C21.7708 23.7071 21.5634 24.0407 21.356 24.3382C20.4003 25.6907 20.3462 25.835 20.2019 27.4038C20.1208 28.2063 19.9224 29.2071 19.8322 29.2702C19.6339 29.3965 19.6068 29.1801 19.688 28.1702C19.733 27.6022 19.7781 26.8087 19.7781 26.403C19.7781 25.7448 19.9044 25.1948 20.0667 25.1948C20.1027 25.1948 20.265 25.0054 20.4183 24.762C20.9052 24.0677 21.5273 23.3915 21.6986 23.3915C21.8249 23.3915 21.8519 23.4366 21.7978 23.5898ZM17.4338 23.698C17.4338 23.7612 17.3888 23.9505 17.3347 24.1128L17.2265 24.4103L16.451 24.3292C15.0625 24.1939 14.6477 24.221 14.0256 24.5005C13.5026 24.7349 13.2862 24.753 13.2862 24.5546C13.2862 24.5095 13.3403 24.4735 13.4034 24.4735C13.4756 24.4735 13.7641 24.3021 14.0617 24.0948C14.5395 23.7431 14.6567 23.7071 15.2699 23.653C16.6133 23.5448 17.4338 23.5628 17.4338 23.698ZM72.3625 24.221C72.7412 24.5907 73.0478 25.4563 72.9125 25.8169C72.8404 26.0333 72.7953 26.0513 72.3895 26.0243C72.1461 26.0063 71.8756 25.9522 71.7854 25.9071C71.6322 25.8259 71.3526 25.0595 71.3526 24.7079C71.3526 24.5366 71.8486 23.9325 71.9928 23.9325C72.0289 23.9325 72.2002 24.0677 72.3625 24.221ZM19.138 25.0956C19.4355 25.4202 19.4355 25.4292 19.3904 26.0874C19.3363 26.7546 19.2101 27.0612 19.0658 26.8358C18.9847 26.7005 16.6855 26.1145 15.9371 26.0333L15.3871 25.9792L14.6838 27.0071C13.9805 28.044 13.6469 28.6752 13.6469 28.9817C13.6469 29.126 13.4846 29.2522 13.2772 29.2522C13.151 29.2522 13.178 28.576 13.3493 27.8727C13.4395 27.476 13.5026 26.8358 13.5116 26.2317C13.5116 25.6817 13.5477 25.2128 13.6018 25.1767C13.6559 25.1407 13.7912 25.1046 13.8994 25.1046C14.1158 25.1046 14.1158 25.1136 14.0797 26.0153C14.0617 26.6464 14.0797 26.8719 14.1428 26.7637C14.1969 26.6825 14.3141 26.5112 14.4223 26.3759C14.5305 26.2497 14.6567 26.0513 14.7108 25.9522C14.8912 25.6095 16.7215 25.4563 17.7584 25.6997C17.9117 25.7358 17.9658 25.6817 18.065 25.3661C18.1371 25.1497 18.2994 24.8612 18.4166 24.7169C18.624 24.4735 18.6511 24.4644 18.7412 24.6087C18.7863 24.6989 18.9666 24.9153 19.138 25.0956ZM69.6485 24.744C69.7387 24.7981 69.8198 24.8792 69.8198 24.9243C69.8198 25.0595 69.2969 25.312 68.6477 25.4923C67.9534 25.6907 66.3936 25.8079 66.3936 25.6546C66.3936 25.5464 66.5919 25.4923 67.3403 25.4292C67.728 25.3931 68.0706 25.2759 68.5575 25.0235C69.2969 24.6358 69.387 24.6087 69.6485 24.744ZM45.2498 25.7268C45.8449 25.8259 46.7375 26.0153 47.2334 26.1415C48.3244 26.4391 49.2531 26.6645 50.1909 26.8628C50.831 26.9981 51.0655 27.1694 50.5876 27.1604C50.2991 27.1514 47.9097 26.926 47.008 26.8178C46.0433 26.7096 44.5195 26.7005 42.7973 26.8087C40.8407 26.935 34.3849 27.0251 34.3849 26.926C34.3849 26.7727 36.2874 26.3038 38.0456 26.0153C40.6965 25.5825 43.5998 25.4653 45.2498 25.7268ZM70.1715 25.8891C70.2346 26.0153 70.2436 26.1595 70.2075 26.1956C70.0182 26.385 66.3936 26.2858 66.3936 26.0874C66.3936 25.9973 67.1419 25.9071 67.701 25.9251C68.0706 25.9432 68.828 25.853 69.6395 25.6907C69.9731 25.6276 70.0723 25.6636 70.1715 25.8891ZM66.628 28.1883C66.4386 30.2621 66.3034 31.1457 66.1862 31.1457C66.078 31.1457 66.1681 29.1801 66.3575 27.6743C66.5198 26.394 66.5378 26.2948 66.6821 26.4391C66.7632 26.5202 66.7452 26.953 66.628 28.1883ZM70.2707 26.8628C70.3879 26.9891 70.469 27.1063 70.442 27.1243C70.4239 27.1423 70.0453 27.4219 69.5944 27.7465C69.1526 28.0711 68.6477 28.4497 68.4944 28.576C68.1608 28.8465 67.4846 29.7842 67.3042 30.217C67.2411 30.3703 67.1239 30.5235 67.0518 30.5506C66.7182 30.6768 67.196 29.4325 67.8452 28.4678C68.0165 28.2153 68.3772 27.8276 68.6477 27.5932C69.1526 27.1604 69.892 26.6374 70.0002 26.6374C70.0362 26.6374 70.1534 26.7366 70.2707 26.8628ZM71.8576 27.2415C71.8846 27.3317 72.0199 27.6653 72.1641 27.9809C72.3805 28.4588 72.5158 28.6301 73.0387 29.0268C73.3723 29.2793 73.742 29.5407 73.8592 29.6039C74.1658 29.7662 74.0215 29.8653 73.5887 29.7842C73.3723 29.7481 72.9937 29.7121 72.7322 29.703C71.7584 29.703 71.1272 29.4776 70.3428 28.8645L70.0002 28.603L69.2338 29.1621C68.81 29.4686 68.251 29.9375 67.9985 30.208C67.5206 30.6949 67.3854 30.785 67.3854 30.5957C67.3854 30.5145 68.1337 29.4776 68.5305 29.0178C68.7018 28.8194 70.1264 27.7194 70.2075 27.7194C70.2346 27.7194 70.4871 27.9538 70.7576 28.2424C71.0371 28.5309 71.4789 28.8735 71.7313 29.0088C72.5789 29.4235 73.0478 29.4325 72.4076 29.0178C72.2363 28.9006 71.9928 28.594 71.8215 28.2694C71.6592 27.9719 71.4248 27.6022 71.3076 27.4669C71.0551 27.1604 71.0912 27.0882 71.5059 27.0882C71.7133 27.0882 71.8215 27.1333 71.8576 27.2415ZM18.3355 29.8834C19.3363 29.9826 20.4454 30.235 21.0765 30.5055C21.9511 30.8932 23.0241 31.4432 23.0241 31.5244C23.0241 31.6416 22.7716 31.6145 21.2027 31.326C19.4175 30.9924 17.4068 30.8391 16.5502 30.9654C16.2166 31.0195 15.3149 31.0916 14.5485 31.1457C13.7821 31.1908 12.7633 31.2809 12.2944 31.335C11.3928 31.4522 11.3928 31.4522 11.3837 31.3531C11.3747 31.2359 14.4043 30.3252 15.6305 30.0817C17.2355 29.7662 17.1633 29.7662 18.3355 29.8834ZM38.6227 30.2621C38.6227 30.3522 38.7218 30.6317 38.8481 30.8662C39.1096 31.3891 39.0555 31.4793 38.4243 31.5154C37.8202 31.5514 37.739 31.4342 37.9374 30.8842C38.0186 30.6498 38.0997 30.3522 38.0997 30.235C38.1177 29.8744 38.262 29.7662 38.4514 29.9375C38.5505 30.0276 38.6227 30.1719 38.6227 30.2621ZM36.6841 30.776C37.0267 31.0555 37.4685 31.4342 37.6669 31.6145C38.0546 31.9932 38.3792 32.0564 38.5325 31.7768C38.5866 31.6777 38.6948 31.5965 38.7669 31.5965C38.9653 31.5965 38.8481 31.9482 38.5595 32.2096C38.3702 32.3809 38.262 32.408 38.0276 32.3719C37.6399 32.2908 37.5948 32.399 37.8292 32.8228C38.1718 33.4629 38.8841 34.2023 39.3981 34.4457C39.8579 34.6621 39.885 34.6621 40.1104 34.5179C40.435 34.3105 40.4801 34.4097 40.2096 34.7252C40.0833 34.8785 40.0022 35.0228 40.0383 35.0498C40.1465 35.158 39.8489 35.4015 39.6505 35.3564C39.5153 35.3294 39.2628 35.4646 38.8481 35.7802C36.7743 37.3491 35.7374 38.0343 35.7374 37.8179C35.7374 37.7638 36.0079 37.5294 36.3325 37.295C36.6661 37.0605 37.3063 36.5917 37.7571 36.249C38.2079 35.9154 38.7489 35.5097 38.9563 35.3654L39.326 35.0859L39.1907 34.7884C39.1005 34.608 38.9382 34.4547 38.7759 34.4007C38.6317 34.3466 38.3882 34.2023 38.235 34.0761C38.0727 33.9498 37.7751 33.7154 37.5677 33.5531C37.3604 33.3908 37.0087 33.1113 36.7833 32.9219C36.3235 32.5342 36.3325 32.5252 35.4038 33.1564L34.9439 33.4719L35.3046 33.517C35.5841 33.5531 35.7825 33.508 36.2153 33.3006L36.7743 33.0392L36.9095 33.2375C37.144 33.5892 37.8472 34.1482 38.4243 34.4547C38.7579 34.6261 38.785 34.7162 38.5415 34.7974C38.4243 34.8334 38.0727 34.6982 37.5497 34.4367C36.7923 34.058 36.7292 34.0129 36.7833 33.8056L36.8374 33.5801L36.4226 33.8146C36.1972 33.9408 36.0079 34.058 36.0079 34.0761C36.0079 34.0941 36.1071 34.3195 36.2333 34.59C36.4587 35.0679 36.5398 35.9425 36.3866 36.1499C36.2964 36.2851 35.3767 37.0335 35.0882 37.2138C34.6193 37.5023 34.7997 37.1507 35.3947 36.6007L35.9448 36.0867L35.8366 35.6269C35.6111 34.7072 35.4669 34.4097 35.1513 34.2654C34.989 34.1843 34.8357 34.1211 34.8087 34.1211C34.7816 34.1211 34.8447 34.3646 34.9349 34.6711C35.0251 34.9687 35.1062 35.2572 35.1062 35.3023C35.1062 35.4826 34.7726 35.3654 34.5923 35.131C33.8619 34.1482 33.9611 33.5351 34.971 32.7416C35.6292 32.2277 36.603 31.6867 36.8735 31.6867C36.9907 31.6867 37.0899 31.6596 37.0899 31.6145C37.0899 31.4883 35.8997 30.785 35.6833 30.785C35.521 30.785 35.521 30.6047 35.7013 30.3522C35.8636 30.1178 35.8456 30.1088 36.6841 30.776ZM71.9387 30.9654C73.0658 31.1547 74.6888 31.5965 75.2298 31.858C76.2757 32.3809 77.3577 32.976 77.3847 33.0572C77.4298 33.1924 76.5462 33.0572 75.9511 32.8408C75.6806 32.7416 75.1757 32.5613 74.842 32.435C74.2019 32.2096 72.5158 31.9031 71.4067 31.8129C71.0371 31.7768 70.2707 31.8129 69.5944 31.8941C68.0887 32.0744 64.9509 32.1916 64.9509 32.0654C64.9509 31.9391 65.4198 31.7408 66.2583 31.5063C66.655 31.3981 67.0788 31.2719 67.205 31.2268C67.3313 31.1818 67.8001 31.0645 68.2419 30.9744C69.3149 30.7399 70.5862 30.7399 71.9387 30.9654ZM50.8491 31.876L51.1737 32.0744L50.9843 32.2547C50.813 32.426 50.786 32.426 50.6417 32.2998C50.3982 32.0924 50.0827 32.0203 49.9384 32.1375C49.7491 32.2908 49.7761 32.5342 49.9925 32.7326C50.1728 32.8949 50.1818 32.8949 50.3261 32.7055C50.4614 32.5342 50.5064 32.5252 50.7409 32.6244C50.9933 32.7236 51.0294 32.7146 51.2909 32.426L51.5704 32.1195L52.1024 32.2728C52.6884 32.4441 53.3196 32.7687 53.3196 32.8949C53.3196 32.94 52.9589 32.949 52.5081 32.931L51.6876 32.8769L51.4802 33.1654C51.372 33.3187 51.2278 33.5711 51.1646 33.7334C51.1015 33.8867 50.7499 34.3015 50.3712 34.6621C49.7581 35.2482 49.6679 35.3023 49.3704 35.2753C49.154 35.2572 49.0277 35.2031 49.0097 35.1039C48.9736 34.9056 49.2261 34.6621 49.4786 34.6621C49.74 34.6621 50.8851 33.481 50.8851 33.2015C50.8851 33.1564 50.804 33.1293 50.7048 33.1293C50.6056 33.1293 50.5245 33.1654 50.5245 33.2015C50.5245 33.2465 50.4704 33.3457 50.4073 33.4449C50.29 33.5982 50.272 33.5982 49.9925 33.3908C49.4605 33.0031 49.2712 32.2908 49.5868 31.9031C49.8032 31.6326 50.4433 31.6236 50.8491 31.876ZM54.5729 33.5441C55.2762 34.2023 55.3663 34.4457 55.0327 34.8695C54.8885 35.0498 54.6811 35.14 54.1491 35.2572C53.7704 35.3384 53.3917 35.4376 53.3106 35.4826C53.1573 35.5638 52.8688 36.2761 52.8688 36.5736C52.8688 36.8622 52.6884 36.7449 52.6794 36.4384C52.6434 35.6089 52.6975 35.4466 53.1303 35.0318C53.3557 34.8154 53.6803 34.5359 53.8426 34.4097L54.1401 34.1843L53.8696 33.9318C53.6442 33.7334 53.5901 33.6072 53.5901 33.3187C53.5901 32.7867 53.8065 32.8318 54.5729 33.5441ZM52.7335 33.7875C52.9139 33.8957 52.9139 33.8957 52.7245 33.9228C52.6253 33.9318 52.3188 34.1302 52.0483 34.3556C51.3901 34.9056 51.0024 35.149 50.5605 35.2753C50.1097 35.4105 50.0736 35.4105 50.0736 35.2933C50.0736 35.2392 50.1638 35.1671 50.281 35.122C50.3892 35.0769 50.804 34.7162 51.2007 34.3195C51.8679 33.6613 51.9491 33.6072 52.2376 33.6433C52.4089 33.6703 52.6343 33.7334 52.7335 33.7875ZM53.2294 34.1662C53.2294 34.2384 53.1032 34.3916 52.9499 34.4998C52.445 34.8695 52.3097 35.2121 52.3188 36.0417C52.3188 36.5285 52.3819 36.9704 52.4991 37.322C52.5983 37.6195 52.6884 37.9261 52.6884 37.9982C52.6884 38.1155 52.0302 38.5122 51.5794 38.6655C51.2368 38.7737 51.3089 38.2958 51.7056 37.863C51.8589 37.6917 51.8589 37.6466 51.7417 37.1868C51.5343 36.4294 51.5704 35.672 51.8138 35.2843C52.3458 34.4277 53.2294 33.7244 53.2294 34.1662ZM54.9426 35.699C54.8795 35.7712 54.7713 35.8343 54.7081 35.8343C54.5368 35.8343 54.0409 36.6187 54.0409 36.8802C54.0409 37.0425 54.104 37.0876 54.4467 37.1417C54.9336 37.2138 54.8975 37.3671 54.3926 37.3671C53.9958 37.3671 53.9508 37.4753 54.1672 37.8991C54.2844 38.1155 54.9065 38.6294 55.0508 38.6294C55.0868 38.6294 55.159 38.4851 55.2131 38.3138C55.2672 38.1425 55.3754 37.9982 55.4475 37.9982C55.6008 37.9982 55.6008 38.0343 55.4836 38.4491C55.3754 38.8278 55.4836 38.9179 55.9344 38.8458C56.5024 38.7556 56.836 38.6204 56.9713 38.422C57.1426 38.1786 57.2598 38.2868 57.1246 38.5753C56.9983 38.8638 56.1688 39.1794 55.3844 39.2335C54.8524 39.2786 54.7442 39.2606 54.3655 39.0351C54.1311 38.8999 53.8516 38.6655 53.7344 38.5032C53.1303 37.7097 53.2565 36.4384 54.0049 35.8613C54.5819 35.4285 55.2672 35.3113 54.9426 35.699ZM56.286 35.5277C57.359 35.8433 57.9451 37.0695 57.4131 37.89C57.2328 38.1696 57.0885 38.0523 57.1606 37.6736L57.2147 37.3581L56.7549 37.4212C56.4664 37.4573 56.2951 37.4482 56.2951 37.3851C56.2951 37.2859 56.5926 37.1868 56.9533 37.1868C57.2959 37.1868 57.341 36.9974 57.1156 36.5285C56.8901 36.0687 56.7008 35.8794 56.3762 35.8072C56.1688 35.7531 56.1328 35.7802 56.0155 36.1679C55.9434 36.4023 55.8262 36.6097 55.7631 36.6277C55.6639 36.6638 55.6459 36.5646 55.7 36.1138C55.7541 35.5998 55.7541 35.5638 55.5827 35.5638C55.4836 35.5638 55.3754 35.5187 55.3483 35.4736C55.2672 35.3384 55.745 35.3654 56.286 35.5277ZM35.4669 35.6269C35.4669 35.9064 35.0251 36.5195 34.5201 36.9523C34.2406 37.1958 33.9972 37.3671 33.9701 37.34C33.8529 37.2318 34.421 36.2761 34.8357 35.8884C35.3046 35.4466 35.4669 35.3835 35.4669 35.6269ZM48.6671 35.8253C48.7031 35.8703 48.622 35.9425 48.5048 35.9876C48.081 36.1318 47.2785 36.9794 47.2785 37.2859C47.2785 37.3851 47.3687 37.4573 47.549 37.4933C47.7023 37.5204 47.9458 37.5745 48.09 37.6015C48.5949 37.7007 48.3785 37.8359 47.7744 37.7999C47.4048 37.7818 47.1974 37.8089 47.2154 37.863C47.2334 37.9081 47.3056 38.0974 47.3687 38.2778C47.4498 38.5032 47.6212 38.6925 47.9187 38.8909C48.4958 39.2696 48.613 39.2515 48.6851 38.8097C48.7663 38.2958 48.9917 38.3228 48.9917 38.8548C48.9917 39.3147 48.9917 39.3147 49.731 39.1343C50.29 39.0081 50.8401 38.6474 50.9302 38.3589C51.0204 38.0794 51.1196 38.1425 51.1106 38.4851C51.0925 38.9901 50.5245 39.5671 49.7581 39.8647C49.3884 40.0179 49.0007 40.1081 48.8113 40.0901C47.2966 39.9638 46.5752 38.8909 46.9179 37.295C47.0261 36.799 47.513 36.2581 48.1351 35.9425C48.5499 35.7261 48.604 35.7171 48.6671 35.8253ZM49.6318 35.9605C50.29 36.1589 50.5876 36.3482 50.8401 36.7089C51.0655 37.0425 51.1466 37.4573 50.9843 37.4573C50.9392 37.4573 50.8671 37.3671 50.831 37.2499C50.7228 36.8982 50.4253 36.5556 50.0736 36.3753C49.8753 36.2761 49.704 36.1949 49.6769 36.1949C49.6589 36.1949 49.6138 36.3482 49.5777 36.5376C49.5056 36.9974 49.3884 37.1687 49.2531 37.0335C49.172 36.9523 49.172 36.8531 49.2531 36.6367C49.3974 36.222 49.3794 36.1048 49.172 36.1048C49.0728 36.1048 48.9917 36.0417 48.9917 35.9695C48.9917 35.7982 49.0999 35.7982 49.6318 35.9605ZM33.0505 37.0154C33.6996 37.4573 34.439 37.9351 34.6915 38.0614C34.9439 38.1876 35.3226 38.413 35.539 38.5573C35.7464 38.7015 36.2333 38.972 36.621 39.1524C37.2522 39.4589 37.3874 39.486 38.1087 39.495C38.8571 39.504 39.1997 39.6122 39.0374 39.7745C39.0014 39.8196 38.5776 39.8466 38.0997 39.8466C37.3964 39.8466 37.144 39.8106 36.8194 39.6573C36.5939 39.5491 36.2603 39.4138 36.071 39.3507C35.8907 39.2966 35.548 39.1163 35.3046 38.954C35.0702 38.7917 34.6193 38.5122 34.2947 38.3228C33.9701 38.1425 33.5103 37.872 33.2668 37.7187C33.0234 37.5745 32.5636 37.304 32.239 37.1327C31.2742 36.6097 31.0398 36.3753 31.3463 36.2581C31.6709 36.1228 31.9504 36.249 33.0505 37.0154ZM55.6639 37.0064C55.7631 37.0695 55.7721 37.1327 55.7 37.2499C55.5647 37.4663 55.4024 37.5023 55.3393 37.331C55.2762 37.1687 55.3483 36.9163 55.4565 36.9163C55.4926 36.9163 55.5918 36.9613 55.6639 37.0064ZM30.2553 37.6376C31.3734 37.8269 32.9423 38.2958 33.871 38.7196C36.1251 39.7384 37.5407 40.5319 38.8841 41.5327C39.1997 41.7762 39.5063 41.9655 39.5514 41.9655C39.6686 41.9655 40.2456 42.5065 40.2456 42.6147C40.2456 42.7319 39.9391 42.6959 39.7407 42.5606C39.5514 42.4254 38.4694 41.9745 37.7661 41.7311C37.5677 41.668 36.5759 41.2171 35.557 40.7393C31.7701 38.963 31.2471 38.7646 29.3266 38.4942C28.7947 38.413 28.1455 38.2958 27.884 38.2327C27.6135 38.1605 27.0364 38.0523 26.6036 37.9892C25.4495 37.8269 25.4495 37.7007 26.5856 37.5564C27.7127 37.4212 29.1373 37.4482 30.2553 37.6376ZM49.3523 37.6917C49.3523 37.872 49.181 37.9351 49.0367 37.8179C48.8204 37.6376 48.8745 37.4753 49.1269 37.5294C49.2531 37.5474 49.3523 37.6195 49.3523 37.6917ZM50.6507 37.863C50.804 37.89 50.8761 37.9532 50.831 37.9982C50.7228 38.1064 50.1368 37.9712 50.0917 37.8269C50.0646 37.7458 50.1097 37.7277 50.2179 37.7548C50.3171 37.7818 50.5064 37.8269 50.6507 37.863ZM58.441 39.7565C59.4148 39.8827 61.4886 40.3606 61.8222 40.5409C62.1287 40.7032 61.8763 40.8114 61.3533 40.7483C60.0008 40.568 52.5261 40.7843 49.8032 41.0729C49.3343 41.127 48.604 41.1991 48.1802 41.2442C47.7564 41.2893 47.1703 41.3704 46.8728 41.4155C46.2056 41.5327 46.1965 41.5327 46.1965 41.4245C46.1965 41.3794 46.5482 41.2352 46.99 41.0999C47.4228 40.9737 48.2433 40.7122 48.8113 40.5319C49.3794 40.3425 50.1728 40.1442 50.5696 40.0811C50.9663 40.027 51.6606 39.9188 52.1024 39.8466C53.3106 39.6483 53.3016 39.6483 55.4475 39.6302C56.7549 39.6302 57.7738 39.6663 58.441 39.7565Z" fill="white"/>
<path d="M42.724 16.9045C42.4265 17.0488 42.147 17.2111 42.1109 17.2471C41.9937 17.3644 42.5797 17.8693 43.0216 18.0316C43.5084 18.2209 44.1667 18.1488 44.8158 17.8422C45.0773 17.707 45.2937 17.5717 45.2937 17.5447C45.2937 17.5086 45.1945 17.3644 45.0683 17.2291L44.8339 16.9857L44.5003 17.3824C44.3199 17.6078 44.0945 17.7881 44.0044 17.7881C43.8511 17.7972 43.8511 17.7881 44.0044 17.5447C44.0855 17.4094 44.2568 17.193 44.3831 17.0488C44.5634 16.8504 44.5814 16.8053 44.4552 16.8053C44.374 16.8053 44.3019 16.8414 44.3019 16.8865C44.3019 17.0217 43.6347 17.7972 43.5175 17.7972C43.3191 17.7972 43.3822 17.6258 43.7519 17.139C43.9503 16.8865 44.0945 16.6611 44.0765 16.643C44.0585 16.625 43.788 16.8775 43.4814 17.2021C43.1748 17.5357 42.8773 17.7881 42.8322 17.7701C42.6068 17.698 42.697 17.4906 43.1478 17.0758C43.7248 16.5348 43.5625 16.4717 42.724 16.9045Z" fill="white"/>
<path d="M69.4834 23.3538C69.4203 23.3719 69.3662 23.471 69.3662 23.5702C69.3662 23.7506 69.4023 23.7776 69.8441 23.8678L70.0875 23.9219L69.9703 23.6333C69.8531 23.3448 69.6998 23.2547 69.4834 23.3538Z" fill="white"/>
<path d="M10.4159 47.9854C9.50525 48.1387 8.73885 48.6527 8.29704 49.41C7.94539 50.0051 7.77408 50.9068 7.82818 51.8896C7.89129 52.9355 8.05359 53.4855 8.47737 54.1076C9.07246 54.9732 10.0282 55.37 11.3266 55.2978C12.5438 55.2257 13.2832 54.7118 13.761 53.6208C14.0676 52.9265 14.0315 52.8634 13.184 52.5839C12.3184 52.3043 12.2192 52.2953 12.2192 52.4757C12.2192 52.674 11.9127 53.2601 11.7053 53.4404C11.4438 53.6839 10.8758 53.729 10.5061 53.5396C10.0102 53.2781 9.83886 52.8904 9.8028 51.8896C9.75771 50.8347 9.88394 50.3297 10.2807 49.933C10.5422 49.6715 10.6323 49.6355 11.0471 49.6355C11.4618 49.6355 11.552 49.6715 11.8225 49.942C11.9938 50.1133 12.1291 50.3117 12.1291 50.3928C12.1291 50.474 12.2012 50.5371 12.2914 50.5371C12.4807 50.5371 13.8422 50.2035 13.9053 50.1404C13.9865 50.0592 13.5086 49.1395 13.211 48.7879C12.8414 48.3731 12.4086 48.1477 11.7233 48.0215C11.2004 47.9223 10.8397 47.9133 10.4159 47.9854Z" fill="white"/>
<path d="M70.5982 47.9752C69.4621 48.2637 69.0473 48.5071 68.5514 49.1744C67.794 50.2113 67.6498 52.2039 68.2449 53.5474C68.5334 54.1966 68.9932 54.6835 69.6244 54.999C70.1113 55.2425 70.2195 55.2605 71.1843 55.2695C72.1851 55.2695 72.2392 55.2605 72.7802 54.972C73.5105 54.5933 74.0064 53.9892 74.2589 53.1326C74.4212 52.6006 74.4482 52.3392 74.4122 51.4105C74.3851 50.4096 74.3491 50.2563 74.0966 49.7063C73.754 48.967 73.213 48.435 72.5818 48.2006C72.1039 48.0202 70.9408 47.894 70.5982 47.9752ZM71.8244 49.8416C72.3113 50.1662 72.4826 50.617 72.4826 51.5728C72.4736 52.8351 72.2121 53.4121 71.5449 53.6105C71.1031 53.7457 70.5441 53.5834 70.2556 53.2408C69.8498 52.7629 69.7146 51.5187 69.967 50.6531C70.2375 49.7334 71.0941 49.3547 71.8244 49.8416Z" fill="white"/>
<path d="M15.1118 51.6339L15.1388 55.1774L16.7167 55.2044C18.4479 55.2315 19.5479 55.1233 20.0438 54.8798C20.2242 54.7987 20.4856 54.5462 20.6389 54.3389C20.8914 53.9692 20.9094 53.888 20.9094 53.1577C20.9094 52.4364 20.8914 52.3372 20.666 52.0396C20.5217 51.8683 20.2512 51.6519 20.0619 51.5618L19.7102 51.4085L19.9897 51.2191C20.9906 50.5519 20.8463 48.7757 19.7553 48.2707C19.4217 48.1265 19.1422 48.0994 17.2307 48.0994H15.0938L15.1118 51.6339ZM18.4659 49.6412C18.7274 49.7675 18.8356 50.1281 18.7094 50.4708C18.6012 50.7503 18.0963 50.9216 17.5012 50.8765L17.1225 50.8495L17.0954 50.1913L17.0684 49.5421H17.6544C17.979 49.5421 18.3397 49.5871 18.4659 49.6412ZM18.7905 52.4273C19.034 52.6708 19.034 53.2388 18.7905 53.4642C18.6463 53.5905 18.4118 53.6446 17.8438 53.6716L17.0774 53.7167V52.9774V52.247H17.8438C18.493 52.247 18.6372 52.2741 18.7905 52.4273Z" fill="white"/>
<path d="M21.7832 48.9574V49.814H22.775H23.7668L23.7849 52.4919L23.8119 55.1788L24.7857 55.2059L25.7505 55.2329V52.5189V49.814H26.7423H27.7341V48.9574V48.1008H24.7587H21.7832V48.9574Z" fill="white"/>
<path d="M31.9819 51.6353L32.0089 55.1788L32.9827 55.2059L33.9475 55.2329V54.3403V53.4567L34.3983 52.9247C34.6508 52.6271 34.8852 52.3747 34.9213 52.3566C34.9664 52.3476 35.2729 52.9517 35.6156 53.7091C35.9582 54.4665 36.2828 55.1157 36.3369 55.1518C36.4902 55.26 38.6361 55.2419 38.6361 55.1247C38.6361 55.0526 37.0672 52.1132 36.3279 50.7968C36.3188 50.7697 36.6885 50.3099 37.1574 49.7599C37.6262 49.2189 38.1402 48.6238 38.2844 48.4345L38.564 48.1008H37.2656H35.9762L34.9844 49.3992L33.9926 50.6976L33.9655 49.3992L33.9385 48.1008H32.9557H31.9639L31.9819 51.6353Z" fill="white"/>
<path d="M40.1402 51.5505C39.5091 53.444 38.9951 55.0489 38.9951 55.112C38.9951 55.2022 39.2205 55.2202 39.9599 55.2022L40.9156 55.1752L41.0689 54.6342L41.2222 54.0932L42.3402 54.0661L43.4673 54.0391L43.6476 54.6071L43.819 55.1752L44.7116 55.2022C45.2075 55.2112 45.6583 55.2112 45.7305 55.1842C45.8116 55.1481 45.5231 54.1924 44.6575 51.6136L43.4673 48.0972H42.3763H41.2943L40.1402 51.5505ZM42.737 51.253C42.9083 51.8661 43.0255 52.3891 43.0075 52.4071C42.9534 52.4612 41.7902 52.4522 41.7361 52.3981C41.7091 52.38 41.7902 51.9923 41.9165 51.5595C42.0337 51.1177 42.187 50.5767 42.2501 50.3513C42.3042 50.1259 42.3673 49.9816 42.3853 50.0357C42.4034 50.0808 42.5566 50.6308 42.737 51.253Z" fill="white"/>
<path d="M46.6792 51.6353L46.7062 55.1788L47.68 55.2059L48.6448 55.2329V53.7812V52.3386H48.8972C49.2759 52.3386 49.4653 52.6001 50.1235 53.9886L50.7096 55.2239H51.8006C52.3956 55.2239 52.8825 55.1878 52.8825 55.1427C52.8825 55.0977 52.6481 54.5567 52.3506 53.9435C51.8366 52.8435 51.3587 52.1583 51.1153 52.1583C50.8809 52.1583 50.9891 52.014 51.3046 51.8968C52.3776 51.5091 52.7743 49.7058 51.9989 48.732C51.5571 48.182 51.1694 48.1099 48.753 48.1008H46.6611L46.6792 51.6353ZM50.2227 49.7689C50.7096 50.2558 50.3669 50.8328 49.5284 50.941C48.6989 51.0492 48.6899 51.0402 48.6628 50.2378L48.6358 49.5435H49.321C49.9251 49.5435 50.0333 49.5705 50.2227 49.7689Z" fill="white"/>
<path d="M54.3004 51.5507C53.6692 53.4442 53.1553 55.0492 53.1553 55.1123C53.1553 55.2024 53.3807 55.2205 54.12 55.2024L55.0938 55.1754L55.2381 54.6344L55.3824 54.0934L56.5184 54.0664L57.6545 54.0393L57.7537 54.427C57.9611 55.2565 57.898 55.2205 59.025 55.2205C59.7914 55.2205 60.0168 55.1934 59.9898 55.1033C59.9627 55.0492 59.4308 53.4442 58.7996 51.5417L57.6455 48.0974H56.5545L55.4545 48.1064L54.3004 51.5507ZM56.8881 51.1991C57.0684 51.8393 57.1947 52.3803 57.1676 52.4073C57.1406 52.4434 56.3652 52.4524 55.9414 52.4344C55.8873 52.4254 55.8692 52.3532 55.8963 52.2631C55.9143 52.1819 56.0676 51.6319 56.2209 51.0458C56.3832 50.4597 56.5275 49.9909 56.5365 50.0089C56.5545 50.027 56.7078 50.5589 56.8881 51.1991Z" fill="white"/>
<path d="M60.8393 51.6353L60.8664 55.1788L61.8402 55.2059L62.8049 55.2329V54.3583V53.4837L63.2828 52.9157C63.5353 52.6091 63.7877 52.3566 63.8238 52.3657C63.8689 52.3837 64.1754 52.9788 64.5 53.6911C64.8336 54.4124 65.1402 55.0526 65.1763 55.1067C65.2574 55.2329 67.4484 55.278 67.5206 55.1518C67.5386 55.1157 67.0337 54.1329 66.4025 52.9698C65.7623 51.8066 65.2394 50.8148 65.2394 50.7697C65.2394 50.7246 65.7263 50.1296 66.3214 49.4443C66.9165 48.759 67.4034 48.173 67.4034 48.1459C67.4034 48.1189 66.8263 48.1099 66.123 48.1189L64.8336 48.1459L63.8418 49.4443L62.85 50.7337L62.823 49.4173L62.7959 48.1008H61.8131H60.8213L60.8393 51.6353Z" fill="white"/>
<path d="M75.7075 51.6321L75.7345 55.1756L78.2411 55.2027L80.7387 55.2207V54.3191V53.4174H79.2059H77.6731V50.7575V48.0976H76.6813H75.6895L75.7075 51.6321Z" fill="white"/>
<path d="M15.9033 57.3675C15.4976 57.5658 15.3623 57.8454 15.3623 58.4945C15.3623 58.9814 15.3894 59.0536 15.6689 59.3331C15.9484 59.6126 16.0205 59.6396 16.5345 59.6396C17.0304 59.6396 17.1205 59.6126 17.355 59.3782C17.6886 59.0446 17.6886 58.8732 17.355 58.756C17.1205 58.6749 17.0664 58.6839 16.9402 58.8823C16.85 59.0265 16.7148 59.0987 16.5345 59.0987C16.2189 59.0987 16.0836 58.8913 16.0836 58.3954C16.0836 57.8273 16.5435 57.5478 16.8681 57.9265C16.9763 58.0527 17.0845 58.0888 17.2468 58.0437C17.5984 57.9626 17.6435 57.8814 17.4902 57.638C17.2017 57.1962 16.4804 57.0699 15.9033 57.3675Z" fill="white"/>
<path d="M18.5214 57.4036C17.8812 57.8363 17.8181 58.8552 18.3951 59.3601C18.6656 59.6036 18.7828 59.6396 19.2066 59.6396C19.8197 59.6396 20.1624 59.4683 20.3607 59.0626C20.5411 58.6839 20.5501 58.2872 20.3788 57.8995C20.1804 57.4306 19.9279 57.2683 19.3509 57.2232C18.9181 57.1962 18.7828 57.2232 18.5214 57.4036ZM19.5673 57.8724C19.7747 58.0257 19.8107 58.72 19.6124 58.9454C19.4681 59.1257 19.0533 59.1437 18.9001 58.9905C18.8369 58.9273 18.7919 58.6929 18.7919 58.4585C18.7919 57.8273 19.1435 57.5658 19.5673 57.8724Z" fill="white"/>
<path d="M20.9531 58.4134V59.6396H21.2777H21.5933L21.5843 58.9814C21.5662 58.0708 21.5753 58.0618 21.8007 58.8732C21.999 59.5585 22.0171 59.5946 22.2786 59.6216C22.531 59.6487 22.5581 59.6216 22.6663 59.2159C22.7294 58.9814 22.8286 58.6027 22.9007 58.3773L23.0179 57.9716V58.8011L23.0269 59.6396H23.3425H23.6671L23.64 58.4405L23.613 57.2503L23.1441 57.2232L22.6753 57.1962L22.5851 57.5388C22.54 57.7281 22.4679 57.9986 22.4318 58.1519C22.3236 58.6298 22.2786 58.6027 22.0802 57.9175L21.8908 57.2503L21.422 57.2232L20.9531 57.1962V58.4134Z" fill="white"/>
<path d="M24.2002 58.4166V59.6428H24.4707H24.7412V58.8133C24.7412 58.3625 24.7682 58.0108 24.7953 58.0379C24.8223 58.0649 24.9305 58.4256 25.0387 58.8404C25.2281 59.5707 25.2461 59.5978 25.5166 59.6248L25.7961 59.6519L26.0125 58.8133L26.2289 57.9748L26.256 58.8043L26.283 59.6428H26.5986H26.9142L26.8871 58.4436L26.8601 57.2535L26.3912 57.2264L25.9224 57.1994L25.7781 57.7223C25.5256 58.642 25.5166 58.651 25.3182 57.9207L25.1379 57.2535L24.6691 57.2264L24.2002 57.1994V58.4166Z" fill="white"/>
<path d="M27.4473 58.1609C27.4473 59.0896 27.4563 59.1167 27.7087 59.3782C27.9522 59.6126 28.0333 59.6396 28.5743 59.6396C29.1153 59.6396 29.1965 59.6126 29.4399 59.3782C29.6924 59.1167 29.7014 59.0896 29.7014 58.1609V57.2052H29.3407H28.9801V58.0437C28.9801 58.9273 28.917 59.0987 28.5743 59.0987C28.2317 59.0987 28.1686 58.9273 28.1686 58.0437V57.2052H27.8079H27.4473V58.1609Z" fill="white"/>
<path d="M30.2936 57.2683C30.2575 57.2954 30.2305 57.8454 30.2305 58.4855V59.6396H30.5911H30.9428L30.9698 59.0175L30.9969 58.3864L31.4026 59.0085C31.7993 59.6126 31.8174 59.6306 32.1961 59.6396H32.5838L32.5567 58.4405L32.5297 57.2503L32.1961 57.2232L31.8625 57.1962L31.8354 57.8454L31.8084 58.4945L31.4116 57.9175C31.1862 57.6019 30.9608 57.3134 30.9157 57.2773C30.7895 57.1872 30.3747 57.1872 30.2936 57.2683Z" fill="white"/>
<path d="M33.1662 57.3166C33.1391 57.3887 33.1301 57.9297 33.1391 58.5248L33.1662 59.5978L33.5539 59.6248L33.9416 59.6519L33.9145 58.4527L33.8875 57.2535L33.5449 57.2264C33.3285 57.2084 33.1932 57.2354 33.1662 57.3166Z" fill="white"/>
<path d="M34.3463 57.2683C34.3103 57.2954 34.2832 57.4396 34.2832 57.5839C34.2832 57.8273 34.3012 57.8363 34.6889 57.8363H35.0947V58.738V59.6396H35.4554H35.816V58.738V57.8363H36.1767C36.5283 57.8363 36.5373 57.8273 36.5373 57.5208V57.2052H35.4734C34.8873 57.2052 34.3734 57.2322 34.3463 57.2683Z" fill="white"/>
<path d="M36.8223 57.2863C36.8223 57.3224 37.0026 57.638 37.228 57.9626C37.5977 58.5126 37.6338 58.6208 37.6338 59.1077V59.6396H38.0395H38.4452V59.1167C38.4452 58.6568 38.4903 58.5396 38.851 57.9986C39.0764 57.665 39.2567 57.3495 39.2567 57.2954C39.2567 57.2503 39.0944 57.2052 38.9051 57.2052C38.5805 57.2052 38.5354 57.2413 38.319 57.6109C38.1838 57.8363 38.0665 58.0167 38.0485 58.0167C38.0305 58.0167 37.9042 57.8363 37.778 57.6109C37.5526 57.2413 37.5075 57.2052 37.1829 57.2052C36.9846 57.2052 36.8223 57.2413 36.8223 57.2863Z" fill="white"/>
<path d="M40.884 57.2685C40.884 57.3046 40.884 57.8456 40.875 58.4677V59.5948L41.7226 59.6218C42.4709 59.6398 42.6062 59.6218 42.8136 59.4595C43.1381 59.198 43.1562 58.7111 42.8406 58.5128C42.6242 58.3685 42.6242 58.3595 42.7955 58.1882C43.0119 57.9718 43.0119 57.7374 42.7955 57.4669C42.6422 57.2685 42.534 57.2505 41.7586 57.2234C41.2807 57.2054 40.893 57.2234 40.884 57.2685ZM42.2185 57.8906C42.2816 58.0619 42.1012 58.1972 41.8217 58.1972C41.6594 58.1972 41.6144 58.1431 41.6144 57.9718C41.6144 57.7824 41.6594 57.7464 41.8849 57.7464C42.0562 57.7464 42.1824 57.8005 42.2185 57.8906ZM42.2906 58.8734C42.2906 59.0177 42.2185 59.0628 41.957 59.0808C41.6414 59.1079 41.6144 59.0898 41.6144 58.8734C41.6144 58.657 41.6414 58.639 41.957 58.6661C42.2185 58.6841 42.2906 58.7292 42.2906 58.8734Z" fill="white"/>
<path d="M44.062 57.4036C43.8546 57.9716 43.3407 59.3421 43.2866 59.4774C43.2325 59.6216 43.2776 59.6396 43.6382 59.6396C43.9899 59.6396 44.053 59.6126 44.053 59.4593C44.053 59.306 44.1161 59.279 44.4948 59.279C44.8645 59.279 44.9546 59.3151 44.9997 59.4593C45.0448 59.6036 45.135 59.6396 45.4596 59.6396H45.8563L45.685 59.2069C45.5948 58.9724 45.3874 58.4314 45.2251 57.9896L44.9276 57.2052H44.5309C44.2063 57.2052 44.1251 57.2413 44.062 57.4036ZM44.7202 58.4855C44.7743 58.7109 44.7563 58.738 44.5489 58.738C44.2964 58.738 44.2694 58.6388 44.4317 58.197C44.5399 57.8724 44.5759 57.9085 44.7202 58.4855Z" fill="white"/>
<path d="M46.4923 57.2954C46.1046 57.4576 45.9694 58.0527 46.2759 58.3232C46.3661 58.4044 46.6546 58.5396 46.9251 58.6298C47.3038 58.747 47.412 58.8282 47.412 58.9634C47.412 59.2249 46.9612 59.261 46.8079 59.0175C46.7268 58.8823 46.6005 58.8282 46.3571 58.8282C45.9964 58.8282 45.9513 58.9003 46.1226 59.2159C46.294 59.5495 46.4923 59.6306 47.0784 59.6396C47.5923 59.6396 47.6825 59.6126 47.9169 59.3782C48.4309 58.8642 48.1604 58.2872 47.3128 58.0708C47.0333 57.9986 46.862 57.9085 46.844 57.8093C46.8079 57.6109 47.2587 57.5929 47.3309 57.7913C47.3669 57.8814 47.5112 57.9265 47.7366 57.9265C48.1604 57.9265 48.1964 57.7642 47.8628 57.4306C47.6825 57.2413 47.5563 57.2052 47.1686 57.2142C46.9071 57.2142 46.6005 57.2503 46.4923 57.2954Z" fill="white"/>
<path d="M48.6387 58.4224V59.6396H49.6305H50.6223V59.3692V59.0987H49.9912C49.378 59.0987 49.36 59.0896 49.36 58.8732C49.36 58.6568 49.378 58.6478 49.9461 58.6478H50.5321V58.3773V58.1068H49.9461C49.4231 58.1068 49.36 58.0888 49.36 57.9265C49.36 57.7642 49.4231 57.7462 49.9912 57.7462H50.6223V57.4757V57.2052H49.6305H48.6387V58.4224Z" fill="white"/>
<path d="M51.1522 57.2593C51.1071 57.2954 51.0801 57.8454 51.0801 58.4855V59.6396H51.8014C52.667 59.6396 53.0186 59.4954 53.208 59.0536C53.3703 58.6659 53.3703 58.2782 53.208 57.8995C52.9916 57.3855 52.7752 57.2683 51.9547 57.2232C51.5489 57.2052 51.1883 57.2142 51.1522 57.2593ZM52.4596 57.9265C52.5858 58.0437 52.5588 58.8101 52.4326 58.9634C52.3694 59.0355 52.2252 59.0987 52.108 59.0987C51.9006 59.0987 51.8916 59.0716 51.8916 58.4134V57.7281L52.144 57.7913C52.2793 57.8183 52.4235 57.8814 52.4596 57.9265Z" fill="white"/>
<path d="M54.8541 57.2683C54.8181 57.2954 54.791 57.4396 54.791 57.5839C54.791 57.8273 54.809 57.8363 55.1968 57.8363H55.6025V58.738V59.6396H55.9632H56.3238V58.738V57.8363H56.6845C57.0361 57.8363 57.0451 57.8273 57.0451 57.5208V57.2052H55.9812C55.3951 57.2052 54.8812 57.2322 54.8541 57.2683Z" fill="white"/>
<path d="M57.8854 57.2868C57.155 57.6024 57.0288 58.8647 57.678 59.4057C58.0296 59.7032 58.8231 59.7393 59.2559 59.4688C59.8329 59.1171 59.9051 58.0532 59.4002 57.5392C59.1657 57.3048 59.0395 57.2597 58.5977 57.2327C58.3092 57.2237 57.9846 57.2417 57.8854 57.2868ZM58.778 57.8638C58.8682 57.9179 58.9583 58.1253 58.9944 58.3056C59.0575 58.7565 58.8501 59.0991 58.4985 59.0991C58.1469 59.0991 58.0296 58.9458 58.0296 58.477C58.0296 57.8638 58.3903 57.5753 58.778 57.8638Z" fill="white"/>
<path d="M60.2164 57.3404C60.1803 57.4216 60.1803 57.8544 60.1984 58.3052C60.2344 59.0896 60.2525 59.1347 60.523 59.3782C60.7754 59.6036 60.8836 59.6396 61.3615 59.6396C62.3263 59.6396 62.5246 59.3782 62.5246 58.0618V57.2052H62.164H61.8033V57.9986C61.8033 58.9183 61.7041 59.1257 61.3074 59.0806L61.0369 59.0536L60.9918 58.1519L60.9467 57.2503L60.6041 57.2232C60.3607 57.2052 60.2525 57.2322 60.2164 57.3404Z" fill="white"/>
<path d="M63.0674 58.4134V59.6396H63.428H63.7887V59.1978C63.7887 58.5036 63.951 58.5036 64.3567 59.2069C64.6002 59.6216 64.6272 59.6396 65.0059 59.6396C65.2313 59.6396 65.4117 59.6216 65.4117 59.6036C65.4117 59.5315 65.033 58.8823 64.8977 58.729C64.7986 58.6118 64.8166 58.5577 65.0059 58.3954C65.2764 58.1609 65.3035 57.7642 65.06 57.4667C64.9068 57.2773 64.7986 57.2503 63.9781 57.2232L63.0674 57.1872V58.4134ZM64.4649 57.9716C64.4649 58.1159 64.3928 58.1609 64.1313 58.179C63.8158 58.206 63.7887 58.188 63.7887 57.9716C63.7887 57.7552 63.8158 57.7372 64.1313 57.7642C64.3928 57.7822 64.4649 57.8273 64.4649 57.9716Z" fill="white"/>
<path d="M65.7773 58.4224V59.6396H66.138H66.4987V58.4224V57.2052H66.138H65.7773V58.4224Z" fill="white"/>
<path d="M67.2924 57.479C66.8325 57.9479 67.0579 58.3627 67.9325 58.6512C68.2391 58.7504 68.3473 58.8315 68.3473 58.9668C68.3473 59.2282 67.8965 59.2643 67.7612 59.0209C67.6981 58.8856 67.5719 58.8315 67.3645 58.8315C67.2022 58.8315 67.0489 58.8586 67.0128 58.8856C66.9317 58.9758 67.2022 59.4446 67.3915 59.5528C67.626 59.67 68.5366 59.67 68.762 59.5438C69.0416 59.3996 69.2039 58.9487 69.0957 58.6331C68.9965 58.3446 68.7981 58.2184 68.212 58.0651C67.9686 58.002 67.8063 57.9118 67.8063 57.8307C67.8063 57.6503 68.1579 57.6233 68.3022 57.7946C68.3653 57.8667 68.5547 57.9299 68.717 57.9299C68.9604 57.9299 69.0235 57.8938 69.0235 57.7585C69.0235 57.443 68.5997 57.2085 68.0588 57.2085C67.635 57.2085 67.5268 57.2446 67.2924 57.479Z" fill="white"/>
<path d="M69.6246 57.2683C69.5886 57.2954 69.5615 57.8454 69.5615 58.4855V59.6396H69.8771H70.1927L70.2017 58.8011V57.9716L70.3189 58.3773C70.391 58.6027 70.4902 58.9724 70.5533 59.2069C70.6615 59.6126 70.6886 59.6396 70.9501 59.6396C71.2386 59.6396 71.2476 59.6306 71.4009 58.9364C71.6173 58.0347 71.7345 57.8273 71.7165 58.4224C71.7075 58.6659 71.6984 59.0446 71.7075 59.2519C71.7255 59.6216 71.7435 59.6396 71.996 59.6396H72.2665V58.4224V57.2052H71.8157C71.5271 57.2052 71.3468 57.2503 71.3197 57.3134C71.3017 57.3765 71.2115 57.6921 71.1124 58.0167L70.9501 58.6027L70.8419 58.2872C70.7878 58.1159 70.6976 57.8003 70.6435 57.5839L70.5443 57.2052H70.1115C69.8771 57.2052 69.6517 57.2322 69.6246 57.2683Z" fill="white"/>
</svg>
