<svg width="100" height="72" viewBox="0 0 100 72" fill="none" xmlns="http://www.w3.org/2000/svg">
<path d="M0 36.097V71.7123H49.8884C88.5693 71.7123 99.8039 71.6852 99.885 71.6041C100.038 71.4508 100.038 0.743227 99.885 0.589946C99.8039 0.508797 88.5693 0.481747 49.8884 0.481747H0V36.097ZM98.2801 2.72686C98.3432 2.85309 98.3703 13.4295 98.3703 36.2323C98.3703 59.035 98.3432 69.6114 98.2801 69.7377C98.1809 69.909 97.5498 69.909 50.1048 69.909C12.8215 69.909 1.99265 69.8819 1.9115 69.8008C1.76724 69.6565 1.74921 2.99736 1.89347 2.72686C1.99265 2.55555 2.62381 2.55555 50.0868 2.55555C97.5498 2.55555 98.1809 2.55555 98.2801 2.72686Z" fill="black"/>
<path d="M49.8252 7.21476C49.3383 7.97215 43.9915 16.4747 43.4054 17.4034C43.1259 17.8633 38.6808 24.8691 37.2742 27.0782C36.8144 27.7995 36.3906 28.4757 36.3365 28.5929C36.2734 28.7102 36.1922 28.7913 36.1471 28.7733C36.066 28.7462 34.6233 26.4019 30.8093 20.0904C29.9708 18.7018 29.0962 17.2592 28.8708 16.8895C28.6454 16.5198 27.9872 15.4378 27.4191 14.5001C26.8511 13.5534 26.3372 12.7329 26.2831 12.6788C26.1839 12.5706 25.715 13.2919 22.7756 18.0616C22.3338 18.783 21.874 19.5133 21.7658 19.6846C21.6486 19.8559 20.9182 21.0371 20.1428 22.2994C19.3584 23.5617 18.1411 25.5273 17.4378 26.6724C16.7255 27.8085 15.1476 30.3692 13.9214 32.3528C12.6952 34.3365 11.5951 36.1037 11.4869 36.275C10.6935 37.4922 6.93359 43.5874 6.93359 43.6596C6.93359 43.7227 12.614 43.8038 23.7945 43.8759C26.1749 43.894 26.5445 43.912 26.5355 44.0292C26.5265 44.1464 25.715 45.4538 22.1535 51.0441C21.7658 51.6572 21.4502 52.1892 21.4502 52.2252C21.4502 52.2613 25.6429 52.3244 30.7643 52.3515C48.2293 52.4687 64.8557 52.5859 71.564 52.649C75.2428 52.6761 78.2543 52.6761 78.2543 52.649C78.2543 52.5859 77.9658 52.108 76.6764 50.0252C74.9903 47.3112 74.4674 46.4637 74.0346 45.7424C73.8092 45.3727 73.5567 44.9579 73.4575 44.8227C73.3673 44.6965 73.2952 44.5522 73.2952 44.5071C73.2952 44.462 74.0436 44.444 74.9903 44.453C75.919 44.471 80.4633 44.5432 85.0888 44.6243C89.7233 44.6965 93.5193 44.7506 93.5463 44.7325C93.5644 44.7145 93.357 44.3358 93.0955 43.894C92.266 42.4964 88.3438 35.9053 87.92 35.193C87.6946 34.8234 87.1266 33.8676 86.6397 33.0742C86.1618 32.2807 85.3774 30.9823 84.9085 30.1889C83.6732 28.106 80.6256 22.9847 78.1822 18.8731C77.01 16.9165 75.7928 14.8608 75.4772 14.3198C75.1526 13.7698 74.8461 13.2739 74.7829 13.2108C74.7018 13.1206 74.3772 13.5714 73.2591 15.3296C72.4747 16.5559 71.3927 18.251 70.8517 19.0985C68.0296 23.4806 65.7213 27.1052 64.7836 28.602C64.441 29.152 64.1344 29.6028 64.1074 29.6028C64.0803 29.6028 63.9541 29.4315 63.8369 29.2151C63.5844 28.7552 63.6295 28.8274 59.6712 22.4347C59.3016 21.8486 58.968 21.2896 58.9139 21.1994C58.7516 20.9109 57.6515 19.1256 55.4425 15.5821C54.2433 13.6435 53.0892 11.7771 52.8728 11.4345C51.8539 9.77546 50.1047 6.92624 50.0777 6.89919C50.0596 6.88115 49.9424 7.0164 49.8252 7.21476ZM50.799 22.6691C51.2318 22.8314 51.4031 22.9666 51.9711 23.6429C52.7556 24.5535 53.6121 25.7437 53.7384 26.0503C53.8015 26.2396 53.7835 26.2847 53.5941 26.3749C53.4679 26.429 53.3507 26.456 53.3416 26.438C53.3236 26.42 52.972 25.9421 52.5662 25.3831C52.1515 24.8331 51.8088 24.3732 51.7908 24.3732C51.7638 24.3732 51.5564 24.4994 51.3219 24.6437C50.7719 24.9953 50.4023 25.0945 49.6629 25.0945C48.9867 25.0945 48.5539 24.9232 48.0129 24.4273L47.6612 24.1027L47.2916 24.4273C45.5333 25.9872 45.1637 26.7536 45.1637 28.8454V30.0266L44.9202 30.1348C44.4964 30.3241 44.4514 30.1708 44.5415 28.7462C44.6768 26.5282 44.8391 25.924 45.5423 25.0765C47.2104 23.0388 49.2752 22.101 50.799 22.6691ZM25.9675 26.6995C26.2109 26.9159 26.247 26.988 26.1839 27.2405C26.1478 27.4028 26.0216 27.6011 25.9044 27.6823C25.7421 27.7815 25.688 27.8987 25.688 28.106C25.697 28.2593 25.6339 28.5839 25.5437 28.8184C25.3904 29.2602 25.3904 29.2602 25.6068 29.4766L25.8232 29.6839L26.238 29.4134C26.6527 29.152 27.5093 28.7913 27.7347 28.7913C27.9511 28.7913 27.8519 28.9266 27.5183 29.1069C27.329 29.2061 26.8691 29.5848 26.4904 29.9364C26.1117 30.2971 25.7781 30.5946 25.7421 30.5946C25.6248 30.5946 24.8855 30.0085 24.8765 29.9184C24.8765 29.8643 24.9576 29.5667 25.0568 29.2511C25.156 28.9085 25.2011 28.629 25.156 28.5749C25.1109 28.5208 25.0568 28.3765 25.0388 28.2593C25.0117 28.0429 25.0117 28.0429 24.6961 28.3585C24.5248 28.5388 24.2634 28.8274 24.1281 29.0077C23.8576 29.3413 23.6142 29.4315 23.6142 29.197C23.6142 29.1249 23.7494 28.8093 23.9117 28.5028C24.1281 28.079 24.2994 27.8806 24.633 27.6823C24.9757 27.4659 25.0748 27.3396 25.156 27.0421C25.2462 26.6995 25.4355 26.447 25.6158 26.447C25.6519 26.447 25.8142 26.5642 25.9675 26.6995ZM54.1802 27.015C54.1802 27.2224 54.2162 27.538 54.2703 27.7093C54.3335 27.9167 54.3244 28.1872 54.2523 28.5659C54.1982 28.8634 54.1441 29.4585 54.1441 29.8913C54.1351 30.6397 54.1261 30.6938 53.8646 30.9463C53.5671 31.2438 53.4138 31.2708 52.1785 31.2258C51.7367 31.2167 51.4662 31.1626 51.4662 31.0995C51.4572 31.0454 51.4572 30.8381 51.4662 30.6397C51.4752 30.4413 51.4211 30.0446 51.349 29.7561C51.2228 29.2872 51.2228 29.179 51.34 28.8544C51.5023 28.3946 51.5113 28.061 51.376 27.7634C51.2408 27.4839 51.4031 27.2314 51.6916 27.2765C51.9801 27.3216 52.1424 27.9798 52.0162 28.6561C51.9531 29.0348 51.9441 29.2962 52.0162 29.5126C52.0613 29.6839 52.1064 29.9725 52.1064 30.1438V30.4594L52.6293 30.4864C53.0892 30.5044 53.1793 30.4774 53.3597 30.288C53.549 30.0807 53.558 30.0356 53.4679 29.6118C53.3867 29.2151 53.3957 29.0979 53.5671 28.6561C53.7564 28.1692 53.7564 28.1331 53.6121 27.6733C53.3597 26.8888 53.4408 26.6273 53.9277 26.6273C54.1621 26.6273 54.1802 26.6544 54.1802 27.015ZM49.3834 27.6733L49.7801 28.106L49.717 28.647C49.69 28.9536 49.6719 29.5397 49.6719 29.9635C49.6809 30.8741 49.5547 31.1176 48.9055 31.37C48.5539 31.4963 48.4367 31.5053 48.0309 31.4151C47.553 31.3069 46.6063 31.2348 45.5784 31.2258C45.2809 31.2167 44.9833 31.1717 44.9202 31.1176C44.7218 30.9553 44.785 30.6126 45.0284 30.4503C45.2448 30.3061 45.2809 30.3061 45.6325 30.4684C45.9842 30.6217 46.5522 30.6848 47.9498 30.6938C48.626 30.7028 48.7883 30.5225 48.8785 29.6659C48.9145 29.3143 48.9686 28.8454 49.0047 28.638C49.0588 28.2864 49.0408 28.2323 48.7342 27.9257C48.4367 27.6282 48.3826 27.6101 48.0309 27.6642C47.526 27.7454 47.3457 27.9347 47.2735 28.4487C47.2284 28.7733 47.2465 28.9356 47.3637 29.1069C47.544 29.3774 47.8416 29.3864 47.9948 29.1249C48.076 28.9897 48.058 28.9266 47.8866 28.7913C47.7153 28.647 47.6973 28.5839 47.7784 28.4306C47.9317 28.1511 48.3375 28.1872 48.5268 28.5118C48.7432 28.8815 48.644 29.5487 48.3375 29.7831C48.0309 30.0266 47.2555 30.0356 46.994 29.7921C46.7866 29.6028 46.6514 28.8634 46.7506 28.4577C46.976 27.529 47.517 27.1323 48.4547 27.2044C48.9686 27.2405 49.0137 27.2675 49.3834 27.6733ZM29.1593 29.179L29.8536 29.8372L29.6462 30.1798C29.511 30.4233 29.4118 30.4954 29.3036 30.4503C29.2224 30.4233 28.9159 30.3151 28.6183 30.2069C27.9872 29.9995 27.9511 29.9815 28.1134 29.8823C28.1765 29.8372 28.411 29.8643 28.6544 29.9364C28.8798 30.0085 29.1413 30.0897 29.2315 30.1167C29.3306 30.1528 29.3847 30.1167 29.3847 30.0176C29.3847 29.9364 29.3487 29.8733 29.3036 29.8733C29.2585 29.8733 29.0151 29.711 28.7626 29.5126C28.4019 29.2241 28.3028 29.0888 28.3028 28.8905C28.3028 28.6831 28.3659 28.5208 28.447 28.5208C28.456 28.5208 28.7716 28.8184 29.1593 29.179ZM76.2707 29.197C76.3067 29.2241 76.3698 29.4134 76.3969 29.6389C76.433 29.8553 76.5141 30.1077 76.5862 30.1979C76.7215 30.3602 76.7305 30.3602 76.9289 30.1348C77.3166 29.6749 78.065 29.5036 78.5428 29.7471C78.8133 29.8913 78.8223 29.9003 78.66 30.0176C78.5699 30.0897 78.2723 30.1438 78.0109 30.1438C77.6322 30.1438 77.5149 30.1798 77.4789 30.2971C77.4518 30.3872 77.3526 30.6397 77.2715 30.8651C77.1182 31.2528 77.1182 31.2889 77.2805 31.7848C77.6322 32.8307 78.3354 33.1733 78.8945 32.5692C79.2191 32.2266 79.2371 31.7758 78.9756 30.9463C78.7953 30.3782 78.8223 30.1798 79.0838 30.279C79.3182 30.3692 79.4986 30.8741 79.5887 31.7217C79.6969 32.6594 79.6519 32.7856 79.0658 33.1733C78.7592 33.3807 78.633 33.4078 78.2092 33.3717C77.5059 33.3086 77.3076 33.1553 76.7756 32.2086C76.6223 31.9471 76.5502 30.9913 76.6674 30.7569C76.7215 30.6397 76.6764 30.5946 76.442 30.5495C76.1985 30.4954 76.1174 30.5225 75.9912 30.6758C75.883 30.811 75.7387 30.8651 75.4682 30.8651C75.0624 30.8651 74.9813 30.7749 74.8821 30.1979C74.819 29.8913 74.792 29.8553 74.5936 29.9003C74.4493 29.9274 74.3772 29.9003 74.3772 29.8192C74.3772 29.7471 74.4403 29.693 74.5124 29.693C74.5846 29.693 74.6477 29.6479 74.6477 29.6028C74.6477 29.5487 74.837 29.4134 75.0805 29.2872C75.4682 29.0888 76.0272 29.0438 76.2707 29.197ZM27.7978 30.0717C27.7708 30.1889 27.5634 30.5225 27.356 30.82C26.4003 32.1725 26.3462 32.3168 26.2019 33.8856C26.1208 34.6881 25.9224 35.6889 25.8322 35.7521C25.6339 35.8783 25.6068 35.6619 25.688 34.652C25.733 34.084 25.7781 33.2905 25.7781 32.8848C25.7781 32.2266 25.9044 31.6766 26.0667 31.6766C26.1027 31.6766 26.265 31.4872 26.4183 31.2438C26.9052 30.5495 27.5273 29.8733 27.6986 29.8733C27.8249 29.8733 27.8519 29.9184 27.7978 30.0717ZM23.4338 30.1798C23.4338 30.243 23.3888 30.4323 23.3347 30.5946L23.2265 30.8922L22.451 30.811C21.0625 30.6758 20.6477 30.7028 20.0256 30.9823C19.5026 31.2167 19.2862 31.2348 19.2862 31.0364C19.2862 30.9913 19.3403 30.9553 19.4034 30.9553C19.4756 30.9553 19.7641 30.784 20.0617 30.5766C20.5395 30.2249 20.6567 30.1889 21.2699 30.1348C22.6133 30.0266 23.4338 30.0446 23.4338 30.1798ZM78.3625 30.7028C78.7412 31.0725 79.0478 31.9381 78.9125 32.2987C78.8404 32.5151 78.7953 32.5332 78.3895 32.5061C78.1461 32.4881 77.8756 32.434 77.7854 32.3889C77.6322 32.3077 77.3526 31.5413 77.3526 31.1897C77.3526 31.0184 77.8486 30.4143 77.9928 30.4143C78.0289 30.4143 78.2002 30.5495 78.3625 30.7028ZM25.138 31.5774C25.4355 31.902 25.4355 31.911 25.3904 32.5692C25.3363 33.2365 25.2101 33.543 25.0658 33.3176C24.9847 33.1824 22.6855 32.5963 21.9371 32.5151L21.3871 32.461L20.6838 33.4889C19.9805 34.5258 19.6469 35.157 19.6469 35.4635C19.6469 35.6078 19.4846 35.734 19.2772 35.734C19.151 35.734 19.178 35.0578 19.3493 34.3545C19.4395 33.9578 19.5026 33.3176 19.5116 32.7135C19.5116 32.1635 19.5477 31.6946 19.6018 31.6586C19.6559 31.6225 19.7912 31.5864 19.8994 31.5864C20.1158 31.5864 20.1158 31.5954 20.0797 32.4971C20.0617 33.1283 20.0797 33.3537 20.1428 33.2455C20.1969 33.1643 20.3141 32.993 20.4223 32.8578C20.5305 32.7315 20.6567 32.5332 20.7108 32.434C20.8912 32.0914 22.7215 31.9381 23.7584 32.1815C23.9117 32.2176 23.9658 32.1635 24.065 31.8479C24.1371 31.6315 24.2994 31.343 24.4166 31.1987C24.624 30.9553 24.6511 30.9463 24.7412 31.0905C24.7863 31.1807 24.9666 31.3971 25.138 31.5774ZM75.6485 31.2258C75.7387 31.2799 75.8198 31.361 75.8198 31.4061C75.8198 31.5413 75.2969 31.7938 74.6477 31.9741C73.9534 32.1725 72.3936 32.2897 72.3936 32.1364C72.3936 32.0282 72.5919 31.9741 73.3403 31.911C73.728 31.875 74.0706 31.7577 74.5575 31.5053C75.2969 31.1176 75.387 31.0905 75.6485 31.2258ZM51.2498 32.2086C51.8449 32.3077 52.7375 32.4971 53.2334 32.6233C54.3244 32.9209 55.2531 33.1463 56.1909 33.3446C56.831 33.4799 57.0655 33.6512 56.5876 33.6422C56.2991 33.6332 53.9097 33.4078 53.008 33.2996C52.0433 33.1914 50.5195 33.1824 48.7973 33.2905C46.8407 33.4168 40.3849 33.5069 40.3849 33.4078C40.3849 33.2545 42.2874 32.7856 44.0456 32.4971C46.6965 32.0643 49.5998 31.9471 51.2498 32.2086ZM76.1715 32.3709C76.2346 32.4971 76.2436 32.6414 76.2075 32.6774C76.0182 32.8668 72.3936 32.7676 72.3936 32.5692C72.3936 32.4791 73.1419 32.3889 73.701 32.4069C74.0706 32.425 74.828 32.3348 75.6395 32.1725C75.9731 32.1094 76.0723 32.1455 76.1715 32.3709ZM72.628 34.6701C72.4386 36.7439 72.3034 37.6275 72.1862 37.6275C72.078 37.6275 72.1681 35.6619 72.3575 34.1561C72.5198 32.8758 72.5378 32.7766 72.6821 32.9209C72.7632 33.002 72.7452 33.4348 72.628 34.6701ZM76.2707 33.3446C76.3879 33.4709 76.469 33.5881 76.442 33.6061C76.4239 33.6242 76.0453 33.9037 75.5944 34.2283C75.1526 34.5529 74.6477 34.9316 74.4944 35.0578C74.1608 35.3283 73.4846 36.266 73.3042 36.6988C73.2411 36.8521 73.1239 37.0054 73.0518 37.0324C72.7182 37.1586 73.196 35.9144 73.8452 34.9496C74.0165 34.6971 74.3772 34.3094 74.6477 34.075C75.1526 33.6422 75.892 33.1192 76.0002 33.1192C76.0362 33.1192 76.1534 33.2184 76.2707 33.3446ZM77.8576 33.7233C77.8846 33.8135 78.0199 34.1471 78.1641 34.4627C78.3805 34.9406 78.5158 35.1119 79.0387 35.5086C79.3723 35.7611 79.742 36.0226 79.8592 36.0857C80.1658 36.248 80.0215 36.3472 79.5887 36.266C79.3723 36.2299 78.9937 36.1939 78.7322 36.1849C77.7584 36.1849 77.1272 35.9594 76.3428 35.3463L76.0002 35.0848L75.2338 35.6439C74.81 35.9504 74.251 36.4193 73.9985 36.6898C73.5206 37.1767 73.3854 37.2668 73.3854 37.0775C73.3854 36.9963 74.1337 35.9594 74.5305 35.4996C74.7018 35.3012 76.1264 34.2012 76.2075 34.2012C76.2346 34.2012 76.4871 34.4356 76.7576 34.7242C77.0371 35.0127 77.4789 35.3553 77.7313 35.4906C78.5789 35.9053 79.0478 35.9144 78.4076 35.4996C78.2363 35.3824 77.9928 35.0758 77.8215 34.7512C77.6592 34.4537 77.4248 34.084 77.3076 33.9488C77.0551 33.6422 77.0912 33.5701 77.5059 33.5701C77.7133 33.5701 77.8215 33.6151 77.8576 33.7233ZM24.3355 36.3652C25.3363 36.4644 26.4454 36.7168 27.0765 36.9873C27.9511 37.375 29.0241 37.925 29.0241 38.0062C29.0241 38.1234 28.7716 38.0964 27.2027 37.8078C25.4175 37.4742 23.4068 37.3209 22.5502 37.4472C22.2166 37.5013 21.3149 37.5734 20.5485 37.6275C19.7821 37.6726 18.7633 37.7627 18.2944 37.8168C17.3928 37.9341 17.3928 37.9341 17.3837 37.8349C17.3747 37.7177 20.4043 36.807 21.6305 36.5635C23.2355 36.248 23.1633 36.248 24.3355 36.3652ZM44.6227 36.7439C44.6227 36.834 44.7218 37.1136 44.8481 37.348C45.1096 37.8709 45.0555 37.9611 44.4243 37.9972C43.8202 38.0332 43.739 37.916 43.9374 37.366C44.0186 37.1316 44.0997 36.834 44.0997 36.7168C44.1177 36.3562 44.262 36.248 44.4514 36.4193C44.5505 36.5094 44.6227 36.6537 44.6227 36.7439ZM42.6841 37.2578C43.0267 37.5373 43.4685 37.916 43.6669 38.0964C44.0546 38.475 44.3792 38.5382 44.5325 38.2587C44.5866 38.1595 44.6948 38.0783 44.7669 38.0783C44.9653 38.0783 44.8481 38.43 44.5595 38.6914C44.3702 38.8628 44.262 38.8898 44.0276 38.8537C43.6399 38.7726 43.5948 38.8808 43.8292 39.3046C44.1718 39.9447 44.8841 40.6841 45.3981 40.9275C45.8579 41.1439 45.885 41.1439 46.1104 40.9997C46.435 40.7923 46.4801 40.8915 46.2096 41.2071C46.0833 41.3603 46.0022 41.5046 46.0383 41.5317C46.1465 41.6398 45.8489 41.8833 45.6505 41.8382C45.5153 41.8112 45.2628 41.9464 44.8481 42.262C42.7743 43.8309 41.7374 44.5161 41.7374 44.2997C41.7374 44.2456 42.0079 44.0112 42.3325 43.7768C42.6661 43.5423 43.3063 43.0735 43.7571 42.7308C44.2079 42.3972 44.7489 41.9915 44.9563 41.8472L45.326 41.5677L45.1907 41.2702C45.1005 41.0898 44.9382 40.9366 44.7759 40.8825C44.6317 40.8284 44.3882 40.6841 44.235 40.5579C44.0727 40.4316 43.7751 40.1972 43.5677 40.0349C43.3604 39.8726 43.0087 39.5931 42.7833 39.4038C42.3235 39.016 42.3325 39.007 41.4038 39.6382L40.9439 39.9538L41.3046 39.9988C41.5841 40.0349 41.7825 39.9898 42.2153 39.7824L42.7743 39.521L42.9095 39.7193C43.144 40.071 43.8472 40.63 44.4243 40.9366C44.7579 41.1079 44.785 41.198 44.5415 41.2792C44.4243 41.3153 44.0727 41.18 43.5497 40.9185C42.7923 40.5398 42.7292 40.4948 42.7833 40.2874L42.8374 40.062L42.4226 40.2964C42.1972 40.4226 42.0079 40.5398 42.0079 40.5579C42.0079 40.5759 42.1071 40.8013 42.2333 41.0718C42.4587 41.5497 42.5398 42.4243 42.3866 42.6317C42.2964 42.7669 41.3767 43.5153 41.0882 43.6956C40.6193 43.9841 40.7997 43.6325 41.3947 43.0825L41.9448 42.5686L41.8366 42.1087C41.6111 41.189 41.4669 40.8915 41.1513 40.7472C40.989 40.6661 40.8357 40.6029 40.8087 40.6029C40.7816 40.6029 40.8447 40.8464 40.9349 41.153C41.0251 41.4505 41.1062 41.739 41.1062 41.7841C41.1062 41.9644 40.7726 41.8472 40.5923 41.6128C39.8619 40.63 39.9611 40.0169 40.971 39.2234C41.6292 38.7095 42.603 38.1685 42.8735 38.1685C42.9907 38.1685 43.0899 38.1414 43.0899 38.0964C43.0899 37.9701 41.8997 37.2668 41.6833 37.2668C41.521 37.2668 41.521 37.0865 41.7013 36.834C41.8636 36.5996 41.8456 36.5906 42.6841 37.2578ZM77.9387 37.4472C79.0658 37.6365 80.6888 38.0783 81.2298 38.3398C82.2757 38.8628 83.3577 39.4579 83.3847 39.539C83.4298 39.6742 82.5462 39.539 81.9511 39.3226C81.6806 39.2234 81.1757 39.0431 80.842 38.9169C80.2019 38.6914 78.5158 38.3849 77.4067 38.2947C77.0371 38.2587 76.2707 38.2947 75.5944 38.3759C74.0887 38.5562 70.9509 38.6734 70.9509 38.5472C70.9509 38.421 71.4198 38.2226 72.2583 37.9882C72.655 37.88 73.0788 37.7537 73.205 37.7086C73.3313 37.6636 73.8001 37.5463 74.2419 37.4562C75.3149 37.2218 76.5862 37.2218 77.9387 37.4472ZM56.8491 38.3578L57.1737 38.5562L56.9843 38.7365C56.813 38.9078 56.786 38.9078 56.6417 38.7816C56.3982 38.5742 56.0827 38.5021 55.9384 38.6193C55.7491 38.7726 55.7761 39.016 55.9925 39.2144C56.1728 39.3767 56.1818 39.3767 56.3261 39.1874C56.4614 39.016 56.5064 39.007 56.7409 39.1062C56.9933 39.2054 57.0294 39.1964 57.2909 38.9078L57.5704 38.6013L58.1024 38.7546C58.6884 38.9259 59.3196 39.2505 59.3196 39.3767C59.3196 39.4218 58.9589 39.4308 58.5081 39.4128L57.6876 39.3587L57.4802 39.6472C57.372 39.8005 57.2278 40.0529 57.1646 40.2152C57.1015 40.3685 56.7499 40.7833 56.3712 41.1439C55.7581 41.73 55.6679 41.7841 55.3704 41.7571C55.154 41.739 55.0277 41.6849 55.0097 41.5858C54.9736 41.3874 55.2261 41.1439 55.4786 41.1439C55.74 41.1439 56.8851 39.9628 56.8851 39.6833C56.8851 39.6382 56.804 39.6111 56.7048 39.6111C56.6056 39.6111 56.5245 39.6472 56.5245 39.6833C56.5245 39.7283 56.4704 39.8275 56.4073 39.9267C56.29 40.08 56.272 40.08 55.9925 39.8726C55.4605 39.4849 55.2712 38.7726 55.5868 38.3849C55.8032 38.1144 56.4433 38.1054 56.8491 38.3578ZM60.5729 40.0259C61.2762 40.6841 61.3663 40.9275 61.0327 41.3513C60.8885 41.5317 60.6811 41.6218 60.1491 41.739C59.7704 41.8202 59.3917 41.9194 59.3106 41.9644C59.1573 42.0456 58.8688 42.7579 58.8688 43.0554C58.8688 43.344 58.6884 43.2268 58.6794 42.9202C58.6434 42.0907 58.6975 41.9284 59.1303 41.5136C59.3557 41.2972 59.6803 41.0177 59.8426 40.8915L60.1401 40.6661L59.8696 40.4136C59.6442 40.2152 59.5901 40.089 59.5901 39.8005C59.5901 39.2685 59.8065 39.3136 60.5729 40.0259ZM58.7335 40.2693C58.9139 40.3775 58.9139 40.3775 58.7245 40.4046C58.6253 40.4136 58.3188 40.612 58.0483 40.8374C57.3901 41.3874 57.0024 41.6308 56.5605 41.7571C56.1097 41.8923 56.0736 41.8923 56.0736 41.7751C56.0736 41.721 56.1638 41.6489 56.281 41.6038C56.3892 41.5587 56.804 41.198 57.2007 40.8013C57.8679 40.1431 57.9491 40.089 58.2376 40.1251C58.4089 40.1521 58.6343 40.2152 58.7335 40.2693ZM59.2294 40.648C59.2294 40.7202 59.1032 40.8734 58.9499 40.9816C58.445 41.3513 58.3097 41.6939 58.3188 42.5235C58.3188 43.0104 58.3819 43.4522 58.4991 43.8038C58.5983 44.1014 58.6884 44.4079 58.6884 44.4801C58.6884 44.5973 58.0302 44.994 57.5794 45.1473C57.2368 45.2555 57.3089 44.7776 57.7056 44.3448C57.8589 44.1735 57.8589 44.1284 57.7417 43.6686C57.5343 42.9112 57.5704 42.1538 57.8138 41.7661C58.3458 40.9095 59.2294 40.2062 59.2294 40.648ZM60.9426 42.1808C60.8795 42.253 60.7713 42.3161 60.7081 42.3161C60.5368 42.3161 60.0409 43.1005 60.0409 43.362C60.0409 43.5243 60.104 43.5694 60.4467 43.6235C60.9336 43.6956 60.8975 43.8489 60.3926 43.8489C59.9958 43.8489 59.9508 43.9571 60.1672 44.3809C60.2844 44.5973 60.9065 45.1112 61.0508 45.1112C61.0868 45.1112 61.159 44.9669 61.2131 44.7956C61.2672 44.6243 61.3754 44.4801 61.4475 44.4801C61.6008 44.4801 61.6008 44.5161 61.4836 44.9309C61.3754 45.3096 61.4836 45.3997 61.9344 45.3276C62.5024 45.2374 62.836 45.1022 62.9713 44.9038C63.1426 44.6604 63.2598 44.7686 63.1246 45.0571C62.9983 45.3456 62.1688 45.6612 61.3844 45.7153C60.8524 45.7604 60.7442 45.7424 60.3655 45.517C60.1311 45.3817 59.8516 45.1473 59.7344 44.985C59.1303 44.1915 59.2565 42.9202 60.0049 42.3431C60.5819 41.9103 61.2672 41.7931 60.9426 42.1808ZM62.286 42.0095C63.359 42.3251 63.9451 43.5514 63.4131 44.3719C63.2328 44.6514 63.0885 44.5342 63.1606 44.1555L63.2147 43.8399L62.7549 43.903C62.4664 43.9391 62.2951 43.93 62.2951 43.8669C62.2951 43.7677 62.5926 43.6686 62.9533 43.6686C63.2959 43.6686 63.341 43.4792 63.1156 43.0104C62.8901 42.5505 62.7008 42.3612 62.3762 42.289C62.1688 42.2349 62.1328 42.262 62.0155 42.6497C61.9434 42.8841 61.8262 43.0915 61.7631 43.1095C61.6639 43.1456 61.6459 43.0464 61.7 42.5956C61.7541 42.0817 61.7541 42.0456 61.5827 42.0456C61.4836 42.0456 61.3754 42.0005 61.3483 41.9554C61.2672 41.8202 61.745 41.8472 62.286 42.0095ZM41.4669 42.1087C41.4669 42.3882 41.0251 43.0013 40.5201 43.4341C40.2406 43.6776 39.9972 43.8489 39.9701 43.8218C39.8529 43.7136 40.421 42.7579 40.8357 42.3702C41.3046 41.9284 41.4669 41.8653 41.4669 42.1087ZM54.6671 42.3071C54.7031 42.3522 54.622 42.4243 54.5048 42.4694C54.081 42.6136 53.2785 43.4612 53.2785 43.7677C53.2785 43.8669 53.3687 43.9391 53.549 43.9751C53.7023 44.0022 53.9458 44.0563 54.09 44.0833C54.5949 44.1825 54.3785 44.3178 53.7744 44.2817C53.4048 44.2637 53.1974 44.2907 53.2154 44.3448C53.2334 44.3899 53.3056 44.5792 53.3687 44.7596C53.4498 44.985 53.6212 45.1743 53.9187 45.3727C54.4958 45.7514 54.613 45.7334 54.6851 45.2915C54.7663 44.7776 54.9917 44.8046 54.9917 45.3366C54.9917 45.7965 54.9917 45.7965 55.731 45.6161C56.29 45.4899 56.8401 45.1292 56.9302 44.8407C57.0204 44.5612 57.1196 44.6243 57.1106 44.9669C57.0925 45.4719 56.5245 46.0489 55.7581 46.3465C55.3884 46.4998 55.0007 46.5899 54.8113 46.5719C53.2966 46.4457 52.5752 45.3727 52.9179 43.7768C53.0261 43.2809 53.513 42.7399 54.1351 42.4243C54.5499 42.2079 54.604 42.1989 54.6671 42.3071ZM55.6318 42.4423C56.29 42.6407 56.5876 42.83 56.8401 43.1907C57.0655 43.5243 57.1466 43.9391 56.9843 43.9391C56.9392 43.9391 56.8671 43.8489 56.831 43.7317C56.7228 43.38 56.4253 43.0374 56.0736 42.8571C55.8753 42.7579 55.704 42.6767 55.6769 42.6767C55.6589 42.6767 55.6138 42.83 55.5777 43.0194C55.5056 43.4792 55.3884 43.6505 55.2531 43.5153C55.172 43.4341 55.172 43.335 55.2531 43.1186C55.3974 42.7038 55.3794 42.5866 55.172 42.5866C55.0728 42.5866 54.9917 42.5235 54.9917 42.4513C54.9917 42.28 55.0999 42.28 55.6318 42.4423ZM39.0505 43.4973C39.6996 43.9391 40.439 44.4169 40.6915 44.5432C40.9439 44.6694 41.3226 44.8948 41.539 45.0391C41.7464 45.1833 42.2333 45.4538 42.621 45.6342C43.2522 45.9407 43.3874 45.9678 44.1087 45.9768C44.8571 45.9858 45.1997 46.094 45.0374 46.2563C45.0014 46.3014 44.5776 46.3284 44.0997 46.3284C43.3964 46.3284 43.144 46.2924 42.8194 46.1391C42.5939 46.0309 42.2603 45.8956 42.071 45.8325C41.8907 45.7784 41.548 45.5981 41.3046 45.4358C41.0702 45.2735 40.6193 44.994 40.2947 44.8046C39.9701 44.6243 39.5103 44.3538 39.2668 44.2005C39.0234 44.0563 38.5636 43.7858 38.239 43.6145C37.2742 43.0915 37.0398 42.8571 37.3463 42.7399C37.6709 42.6046 37.9504 42.7308 39.0505 43.4973ZM61.6639 43.4882C61.7631 43.5514 61.7721 43.6145 61.7 43.7317C61.5647 43.9481 61.4024 43.9841 61.3393 43.8128C61.2762 43.6505 61.3483 43.3981 61.4565 43.3981C61.4926 43.3981 61.5918 43.4432 61.6639 43.4882ZM36.2553 44.1194C37.3734 44.3087 38.9423 44.7776 39.871 45.2014C42.1251 46.2202 43.5407 47.0137 44.8841 48.0145C45.1997 48.258 45.5063 48.4473 45.5514 48.4473C45.6686 48.4473 46.2456 48.9883 46.2456 49.0965C46.2456 49.2137 45.9391 49.1777 45.7407 49.0424C45.5514 48.9072 44.4694 48.4563 43.7661 48.2129C43.5677 48.1498 42.5759 47.699 41.557 47.2211C37.7701 45.4448 37.2471 45.2465 35.3266 44.976C34.7947 44.8948 34.1455 44.7776 33.884 44.7145C33.6135 44.6424 33.0364 44.5342 32.6036 44.471C31.4495 44.3087 31.4495 44.1825 32.5856 44.0382C33.7127 43.903 35.1373 43.93 36.2553 44.1194ZM55.3523 44.1735C55.3523 44.3538 55.181 44.4169 55.0367 44.2997C54.8204 44.1194 54.8745 43.9571 55.1269 44.0112C55.2531 44.0292 55.3523 44.1014 55.3523 44.1735ZM56.6507 44.3448C56.804 44.3719 56.8761 44.435 56.831 44.4801C56.7228 44.5883 56.1368 44.453 56.0917 44.3087C56.0646 44.2276 56.1097 44.2096 56.2179 44.2366C56.3171 44.2637 56.5064 44.3087 56.6507 44.3448ZM64.441 46.2383C65.4148 46.3645 67.4886 46.8424 67.8222 47.0227C68.1287 47.185 67.8763 47.2932 67.3533 47.2301C66.0008 47.0498 58.5261 47.2662 55.8032 47.5547C55.3343 47.6088 54.604 47.6809 54.1802 47.726C53.7564 47.7711 53.1703 47.8522 52.8728 47.8973C52.2056 48.0145 52.1965 48.0145 52.1965 47.9063C52.1965 47.8613 52.5482 47.717 52.99 47.5817C53.4228 47.4555 54.2433 47.194 54.8113 47.0137C55.3794 46.8244 56.1728 46.626 56.5696 46.5629C56.9663 46.5088 57.6606 46.4006 58.1024 46.3284C59.3106 46.1301 59.3016 46.1301 61.4475 46.112C62.7549 46.112 63.7738 46.1481 64.441 46.2383Z" fill="black"/>
<path d="M48.724 23.3863C48.4265 23.5306 48.147 23.6929 48.1109 23.729C47.9937 23.8462 48.5797 24.3511 49.0216 24.5134C49.5084 24.7027 50.1667 24.6306 50.8158 24.3241C51.0773 24.1888 51.2937 24.0536 51.2937 24.0265C51.2937 23.9904 51.1945 23.8462 51.0683 23.7109L50.8339 23.4675L50.5003 23.8642C50.3199 24.0896 50.0945 24.27 50.0044 24.27C49.8511 24.279 49.8511 24.27 50.0044 24.0265C50.0855 23.8913 50.2568 23.6749 50.3831 23.5306C50.5634 23.3322 50.5814 23.2872 50.4552 23.2872C50.374 23.2872 50.3019 23.3232 50.3019 23.3683C50.3019 23.5035 49.6347 24.279 49.5175 24.279C49.3191 24.279 49.3822 24.1077 49.7519 23.6208C49.9503 23.3683 50.0945 23.1429 50.0765 23.1249C50.0585 23.1068 49.788 23.3593 49.4814 23.6839C49.1748 24.0175 48.8773 24.27 48.8322 24.2519C48.6068 24.1798 48.697 23.9724 49.1478 23.5576C49.7248 23.0167 49.5625 22.9535 48.724 23.3863Z" fill="black"/>
<path d="M75.4834 29.8356C75.4203 29.8537 75.3662 29.9529 75.3662 30.052C75.3662 30.2324 75.4023 30.2594 75.8441 30.3496L76.0875 30.4037L75.9703 30.1152C75.8531 29.8266 75.6998 29.7365 75.4834 29.8356Z" fill="black"/>
<path d="M16.4159 54.4672C15.5052 54.6205 14.7388 55.1345 14.297 55.8919C13.9454 56.4869 13.7741 57.3886 13.8282 58.3714C13.8913 59.4173 14.0536 59.9673 14.4774 60.5895C15.0725 61.455 16.0282 61.8518 17.3266 61.7796C18.5438 61.7075 19.2832 61.1936 19.761 60.1026C20.0676 59.4083 20.0315 59.3452 19.184 59.0657C18.3184 58.7862 18.2192 58.7771 18.2192 58.9575C18.2192 59.1558 17.9127 59.7419 17.7053 59.9222C17.4438 60.1657 16.8758 60.2108 16.5061 60.0214C16.0102 59.7599 15.8389 59.3722 15.8028 58.3714C15.7577 57.3165 15.8839 56.8115 16.2807 56.4148C16.5422 56.1533 16.6323 56.1173 17.0471 56.1173C17.4618 56.1173 17.552 56.1533 17.8225 56.4238C17.9938 56.5951 18.1291 56.7935 18.1291 56.8747C18.1291 56.9558 18.2012 57.0189 18.2914 57.0189C18.4807 57.0189 19.8422 56.6853 19.9053 56.6222C19.9865 56.541 19.5086 55.6214 19.211 55.2697C18.8414 54.855 18.4086 54.6295 17.7233 54.5033C17.2004 54.4041 16.8397 54.3951 16.4159 54.4672Z" fill="black"/>
<path d="M76.5982 54.457C75.4621 54.7455 75.0473 54.989 74.5514 55.6562C73.794 56.6931 73.6498 58.6857 74.2449 60.0292C74.5334 60.6784 74.9932 61.1653 75.6244 61.4808C76.1113 61.7243 76.2195 61.7423 77.1843 61.7513C78.1851 61.7513 78.2392 61.7423 78.7802 61.4538C79.5105 61.0751 80.0064 60.471 80.2589 59.6144C80.4212 59.0825 80.4482 58.821 80.4122 57.8923C80.3851 56.8914 80.3491 56.7382 80.0966 56.1881C79.754 55.4488 79.213 54.9168 78.5818 54.6824C78.1039 54.5021 76.9408 54.3758 76.5982 54.457ZM77.8244 56.3234C78.3113 56.648 78.4826 57.0988 78.4826 58.0546C78.4736 59.3169 78.2121 59.8939 77.5449 60.0923C77.1031 60.2276 76.5441 60.0653 76.2556 59.7226C75.8498 59.2447 75.7146 58.0005 75.967 57.1349C76.2375 56.2152 77.0941 55.8365 77.8244 56.3234Z" fill="black"/>
<path d="M21.1118 58.1157L21.1388 61.6592L22.7167 61.6863C24.4479 61.7133 25.5479 61.6051 26.0438 61.3617C26.2242 61.2805 26.4856 61.028 26.6389 60.8207C26.8914 60.451 26.9094 60.3698 26.9094 59.6395C26.9094 58.9182 26.8914 58.819 26.666 58.5215C26.5217 58.3501 26.2512 58.1337 26.0619 58.0436L25.7102 57.8903L25.9897 57.7009C26.9906 57.0337 26.8463 55.2575 25.7553 54.7525C25.4217 54.6083 25.1422 54.5812 23.2307 54.5812H21.0938L21.1118 58.1157ZM24.4659 56.1231C24.7274 56.2493 24.8356 56.6099 24.7094 56.9526C24.6012 57.2321 24.0963 57.4034 23.5012 57.3583L23.1225 57.3313L23.0954 56.6731L23.0684 56.0239H23.6544C23.979 56.0239 24.3397 56.069 24.4659 56.1231ZM24.7905 58.9092C25.034 59.1526 25.034 59.7206 24.7905 59.9461C24.6463 60.0723 24.4118 60.1264 23.8438 60.1534L23.0774 60.1985V59.4592V58.7288H23.8438C24.493 58.7288 24.6372 58.7559 24.7905 58.9092Z" fill="black"/>
<path d="M27.7832 55.4392V56.2958H28.775H29.7668L29.7849 58.9737L29.8119 61.6606L30.7857 61.6877L31.7505 61.7147V59.0007V56.2958H32.7423H33.7341V55.4392V54.5827H30.7587H27.7832V55.4392Z" fill="black"/>
<path d="M37.9819 58.1171L38.0089 61.6606L38.9827 61.6877L39.9475 61.7147V60.8221V59.9385L40.3983 59.4065C40.6508 59.1089 40.8852 58.8565 40.9213 58.8385C40.9664 58.8294 41.2729 59.4335 41.6156 60.1909C41.9582 60.9483 42.2828 61.5975 42.3369 61.6336C42.4902 61.7418 44.6361 61.7237 44.6361 61.6065C44.6361 61.5344 43.0672 58.595 42.3279 57.2786C42.3188 57.2515 42.6885 56.7917 43.1574 56.2417C43.6262 55.7007 44.1402 55.1056 44.2844 54.9163L44.564 54.5827H43.2656H41.9762L40.9844 55.881L39.9926 57.1794L39.9655 55.881L39.9385 54.5827H38.9557H37.9639L37.9819 58.1171Z" fill="black"/>
<path d="M46.1402 58.0323C45.5091 59.9258 44.9951 61.5307 44.9951 61.5939C44.9951 61.684 45.2205 61.7021 45.9599 61.684L46.9156 61.657L47.0689 61.116L47.2222 60.575L48.3402 60.5479L49.4673 60.5209L49.6476 61.0889L49.819 61.657L50.7116 61.684C51.2075 61.693 51.6583 61.693 51.7305 61.666C51.8116 61.6299 51.5231 60.6742 50.6575 58.0954L49.4673 54.579H48.3763H47.2943L46.1402 58.0323ZM48.737 57.7348C48.9083 58.3479 49.0255 58.8709 49.0075 58.8889C48.9534 58.943 47.7902 58.934 47.7361 58.8799C47.7091 58.8619 47.7902 58.4741 47.9165 58.0413C48.0337 57.5995 48.187 57.0585 48.2501 56.8331C48.3042 56.6077 48.3673 56.4635 48.3853 56.5176C48.4034 56.5626 48.5566 57.1126 48.737 57.7348Z" fill="black"/>
<path d="M52.6792 58.1171L52.7062 61.6606L53.68 61.6877L54.6448 61.7147V60.2631V58.8204H54.8972C55.2759 58.8204 55.4653 59.0819 56.1235 60.4704L56.7096 61.7057H57.8006C58.3956 61.7057 58.8825 61.6696 58.8825 61.6246C58.8825 61.5795 58.6481 61.0385 58.3506 60.4254C57.8366 59.3253 57.3587 58.6401 57.1153 58.6401C56.8809 58.6401 56.9891 58.4958 57.3046 58.3786C58.3776 57.9909 58.7743 56.1876 57.9989 55.2138C57.5571 54.6638 57.1694 54.5917 54.753 54.5827H52.6611L52.6792 58.1171ZM56.2227 56.2507C56.7096 56.7376 56.3669 57.3147 55.5284 57.4229C54.6989 57.5311 54.6899 57.522 54.6628 56.7196L54.6358 56.0253H55.321C55.9251 56.0253 56.0333 56.0523 56.2227 56.2507Z" fill="black"/>
<path d="M60.3004 58.0326C59.6692 59.926 59.1553 61.531 59.1553 61.5941C59.1553 61.6843 59.3807 61.7023 60.12 61.6843L61.0938 61.6572L61.2381 61.1162L61.3824 60.5752L62.5184 60.5482L63.6545 60.5211L63.7537 60.9088C63.9611 61.7383 63.898 61.7023 65.025 61.7023C65.7914 61.7023 66.0168 61.6752 65.9898 61.5851C65.9627 61.531 65.4308 59.926 64.7996 58.0235L63.6455 54.5792H62.5545L61.4545 54.5882L60.3004 58.0326ZM62.8881 57.6809C63.0684 58.3211 63.1947 58.8621 63.1676 58.8891C63.1406 58.9252 62.3652 58.9342 61.9414 58.9162C61.8873 58.9072 61.8692 58.835 61.8963 58.7449C61.9143 58.6637 62.0676 58.1137 62.2209 57.5276C62.3832 56.9416 62.5275 56.4727 62.5365 56.4907C62.5545 56.5088 62.7078 57.0407 62.8881 57.6809Z" fill="black"/>
<path d="M66.8393 58.1171L66.8664 61.6606L67.8402 61.6877L68.8049 61.7147V60.8401V59.9655L69.2828 59.3975C69.5353 59.0909 69.7877 58.8385 69.8238 58.8475C69.8689 58.8655 70.1754 59.4606 70.5 60.1729C70.8336 60.8942 71.1402 61.5344 71.1763 61.5885C71.2574 61.7147 73.4484 61.7598 73.5206 61.6336C73.5386 61.5975 73.0337 60.6147 72.4025 59.4516C71.7623 58.2884 71.2394 57.2966 71.2394 57.2515C71.2394 57.2065 71.7263 56.6114 72.3214 55.9261C72.9165 55.2409 73.4034 54.6548 73.4034 54.6277C73.4034 54.6007 72.8263 54.5917 72.123 54.6007L70.8336 54.6277L69.8418 55.9261L68.85 57.2155L68.823 55.8991L68.7959 54.5827H67.8131H66.8213L66.8393 58.1171Z" fill="black"/>
<path d="M81.7075 58.1139L81.7345 61.6574L84.2411 61.6845L86.7387 61.7025V60.8009V59.8992H85.2059H83.6731V57.2393V54.5795H82.6813H81.6895L81.7075 58.1139Z" fill="black"/>
<path d="M21.9033 63.8493C21.4976 64.0477 21.3623 64.3272 21.3623 64.9764C21.3623 65.4633 21.3894 65.5354 21.6689 65.8149C21.9484 66.0944 22.0205 66.1215 22.5345 66.1215C23.0304 66.1215 23.1205 66.0944 23.355 65.86C23.6886 65.5264 23.6886 65.3551 23.355 65.2378C23.1205 65.1567 23.0664 65.1657 22.9402 65.3641C22.85 65.5083 22.7148 65.5805 22.5345 65.5805C22.2189 65.5805 22.0836 65.3731 22.0836 64.8772C22.0836 64.3091 22.5435 64.0296 22.8681 64.4083C22.9763 64.5346 23.0845 64.5706 23.2468 64.5255C23.5984 64.4444 23.6435 64.3632 23.4902 64.1198C23.2017 63.678 22.4804 63.5518 21.9033 63.8493Z" fill="black"/>
<path d="M24.5214 63.8854C23.8812 64.3182 23.8181 65.337 24.3951 65.8419C24.6656 66.0854 24.7828 66.1215 25.2066 66.1215C25.8197 66.1215 26.1624 65.9501 26.3607 65.5444C26.5411 65.1657 26.5501 64.769 26.3788 64.3813C26.1804 63.9124 25.9279 63.7501 25.3509 63.705C24.9181 63.678 24.7828 63.705 24.5214 63.8854ZM25.5673 64.3542C25.7747 64.5075 25.8107 65.2018 25.6124 65.4272C25.4681 65.6075 25.0533 65.6256 24.9001 65.4723C24.8369 65.4092 24.7919 65.1747 24.7919 64.9403C24.7919 64.3091 25.1435 64.0477 25.5673 64.3542Z" fill="black"/>
<path d="M26.9531 64.8952V66.1215H27.2777H27.5933L27.5843 65.4633C27.5662 64.5526 27.5753 64.5436 27.8007 65.3551C27.999 66.0403 28.0171 66.0764 28.2786 66.1034C28.531 66.1305 28.5581 66.1034 28.6663 65.6977C28.7294 65.4633 28.8286 65.0846 28.9007 64.8591L29.0179 64.4534V65.2829L29.0269 66.1215H29.3425H29.6671L29.64 64.9223L29.613 63.7321L29.1441 63.705L28.6753 63.678L28.5851 64.0206C28.54 64.21 28.4679 64.4805 28.4318 64.6337C28.3236 65.1116 28.2786 65.0846 28.0802 64.3993L27.8908 63.7321L27.422 63.705L26.9531 63.678V64.8952Z" fill="black"/>
<path d="M30.2002 64.8984V66.1247H30.4707H30.7412V65.2951C30.7412 64.8443 30.7682 64.4927 30.7953 64.5197C30.8223 64.5468 30.9305 64.9074 31.0387 65.3222C31.2281 66.0525 31.2461 66.0796 31.5166 66.1066L31.7961 66.1337L32.0125 65.2951L32.2289 64.4566L32.256 65.2861L32.283 66.1247H32.5986H32.9142L32.8871 64.9255L32.8601 63.7353L32.3912 63.7082L31.9224 63.6812L31.7781 64.2041C31.5256 65.1238 31.5166 65.1328 31.3182 64.4025L31.1379 63.7353L30.6691 63.7082L30.2002 63.6812V64.8984Z" fill="black"/>
<path d="M33.4473 64.6428C33.4473 65.5715 33.4563 65.5985 33.7087 65.86C33.9522 66.0944 34.0333 66.1215 34.5743 66.1215C35.1153 66.1215 35.1965 66.0944 35.4399 65.86C35.6924 65.5985 35.7014 65.5715 35.7014 64.6428V63.687H35.3407H34.9801V64.5255C34.9801 65.4092 34.917 65.5805 34.5743 65.5805C34.2317 65.5805 34.1686 65.4092 34.1686 64.5255V63.687H33.8079H33.4473V64.6428Z" fill="black"/>
<path d="M36.2936 63.7501C36.2575 63.7772 36.2305 64.3272 36.2305 64.9673V66.1215H36.5911H36.9428L36.9698 65.4993L36.9969 64.8682L37.4026 65.4903C37.7993 66.0944 37.8174 66.1124 38.1961 66.1215H38.5838L38.5567 64.9223L38.5297 63.7321L38.1961 63.705L37.8625 63.678L37.8354 64.3272L37.8084 64.9764L37.4116 64.3993C37.1862 64.0837 36.9608 63.7952 36.9157 63.7591C36.7895 63.669 36.3747 63.669 36.2936 63.7501Z" fill="black"/>
<path d="M39.1662 63.7984C39.1391 63.8705 39.1301 64.4115 39.1391 65.0066L39.1662 66.0796L39.5539 66.1066L39.9416 66.1337L39.9145 64.9345L39.8875 63.7353L39.5449 63.7082C39.3285 63.6902 39.1932 63.7172 39.1662 63.7984Z" fill="black"/>
<path d="M40.3463 63.7501C40.3103 63.7772 40.2832 63.9214 40.2832 64.0657C40.2832 64.3091 40.3012 64.3182 40.6889 64.3182H41.0947V65.2198V66.1215H41.4554H41.816V65.2198V64.3182H42.1767C42.5283 64.3182 42.5373 64.3091 42.5373 64.0026V63.687H41.4734C40.8873 63.687 40.3734 63.714 40.3463 63.7501Z" fill="black"/>
<path d="M42.8223 63.7681C42.8223 63.8042 43.0026 64.1198 43.228 64.4444C43.5977 64.9944 43.6338 65.1026 43.6338 65.5895V66.1215H44.0395H44.4452V65.5985C44.4452 65.1387 44.4903 65.0214 44.851 64.4805C45.0764 64.1468 45.2567 63.8313 45.2567 63.7772C45.2567 63.7321 45.0944 63.687 44.9051 63.687C44.5805 63.687 44.5354 63.7231 44.319 64.0927C44.1838 64.3182 44.0665 64.4985 44.0485 64.4985C44.0305 64.4985 43.9042 64.3182 43.778 64.0927C43.5526 63.7231 43.5075 63.687 43.1829 63.687C42.9846 63.687 42.8223 63.7231 42.8223 63.7681Z" fill="black"/>
<path d="M46.884 63.7503C46.884 63.7864 46.884 64.3274 46.875 64.9495V66.0766L47.7226 66.1036C48.4709 66.1217 48.6062 66.1036 48.8136 65.9413C49.1381 65.6798 49.1562 65.193 48.8406 64.9946C48.6242 64.8503 48.6242 64.8413 48.7955 64.67C49.0119 64.4536 49.0119 64.2192 48.7955 63.9487C48.6422 63.7503 48.534 63.7323 47.7586 63.7052C47.2807 63.6872 46.893 63.7052 46.884 63.7503ZM48.2185 64.3724C48.2816 64.5438 48.1012 64.679 47.8217 64.679C47.6594 64.679 47.6144 64.6249 47.6144 64.4536C47.6144 64.2642 47.6594 64.2282 47.8849 64.2282C48.0562 64.2282 48.1824 64.2823 48.2185 64.3724ZM48.2906 65.3552C48.2906 65.4995 48.2185 65.5446 47.957 65.5626C47.6414 65.5897 47.6144 65.5716 47.6144 65.3552C47.6144 65.1389 47.6414 65.1208 47.957 65.1479C48.2185 65.1659 48.2906 65.211 48.2906 65.3552Z" fill="black"/>
<path d="M50.062 63.8854C49.8546 64.4534 49.3407 65.8239 49.2866 65.9592C49.2325 66.1034 49.2776 66.1215 49.6382 66.1215C49.9899 66.1215 50.053 66.0944 50.053 65.9411C50.053 65.7878 50.1161 65.7608 50.4948 65.7608C50.8645 65.7608 50.9546 65.7969 50.9997 65.9411C51.0448 66.0854 51.135 66.1215 51.4596 66.1215H51.8563L51.685 65.6887C51.5948 65.4542 51.3874 64.9132 51.2251 64.4714L50.9276 63.687H50.5309C50.2063 63.687 50.1251 63.7231 50.062 63.8854ZM50.7202 64.9673C50.7743 65.1928 50.7563 65.2198 50.5489 65.2198C50.2964 65.2198 50.2694 65.1206 50.4317 64.6788C50.5399 64.3542 50.5759 64.3903 50.7202 64.9673Z" fill="black"/>
<path d="M52.4923 63.7772C52.1046 63.9395 51.9694 64.5346 52.2759 64.805C52.3661 64.8862 52.6546 65.0214 52.9251 65.1116C53.3038 65.2288 53.412 65.31 53.412 65.4452C53.412 65.7067 52.9612 65.7428 52.8079 65.4993C52.7268 65.3641 52.6005 65.31 52.3571 65.31C51.9964 65.31 51.9513 65.3821 52.1226 65.6977C52.294 66.0313 52.4923 66.1124 53.0784 66.1215C53.5923 66.1215 53.6825 66.0944 53.9169 65.86C54.4309 65.346 54.1604 64.769 53.3128 64.5526C53.0333 64.4805 52.862 64.3903 52.844 64.2911C52.8079 64.0927 53.2587 64.0747 53.3309 64.2731C53.3669 64.3632 53.5112 64.4083 53.7366 64.4083C54.1604 64.4083 54.1964 64.246 53.8628 63.9124C53.6825 63.7231 53.5563 63.687 53.1686 63.696C52.9071 63.696 52.6005 63.7321 52.4923 63.7772Z" fill="black"/>
<path d="M54.6387 64.9042V66.1215H55.6305H56.6223V65.851V65.5805H55.9912C55.378 65.5805 55.36 65.5715 55.36 65.3551C55.36 65.1387 55.378 65.1296 55.9461 65.1296H56.5321V64.8591V64.5887H55.9461C55.4231 64.5887 55.36 64.5706 55.36 64.4083C55.36 64.246 55.4231 64.228 55.9912 64.228H56.6223V63.9575V63.687H55.6305H54.6387V64.9042Z" fill="black"/>
<path d="M57.1522 63.7411C57.1071 63.7772 57.0801 64.3272 57.0801 64.9673V66.1215H57.8014C58.667 66.1215 59.0186 65.9772 59.208 65.5354C59.3703 65.1477 59.3703 64.76 59.208 64.3813C58.9916 63.8673 58.7752 63.7501 57.9547 63.705C57.5489 63.687 57.1883 63.696 57.1522 63.7411ZM58.4596 64.4083C58.5858 64.5255 58.5588 65.2919 58.4326 65.4452C58.3694 65.5174 58.2252 65.5805 58.108 65.5805C57.9006 65.5805 57.8916 65.5534 57.8916 64.8952V64.21L58.144 64.2731C58.2793 64.3001 58.4235 64.3632 58.4596 64.4083Z" fill="black"/>
<path d="M60.8541 63.7501C60.8181 63.7772 60.791 63.9214 60.791 64.0657C60.791 64.3091 60.809 64.3182 61.1968 64.3182H61.6025V65.2198V66.1215H61.9632H62.3238V65.2198V64.3182H62.6845C63.0361 64.3182 63.0451 64.3091 63.0451 64.0026V63.687H61.9812C61.3951 63.687 60.8812 63.714 60.8541 63.7501Z" fill="black"/>
<path d="M63.8854 63.7686C63.155 64.0842 63.0288 65.3465 63.678 65.8875C64.0296 66.185 64.8231 66.2211 65.2559 65.9506C65.8329 65.5989 65.9051 64.535 65.4002 64.0211C65.1657 63.7866 65.0395 63.7415 64.5977 63.7145C64.3092 63.7055 63.9846 63.7235 63.8854 63.7686ZM64.778 64.3456C64.8682 64.3997 64.9583 64.6071 64.9944 64.7875C65.0575 65.2383 64.8501 65.5809 64.4985 65.5809C64.1469 65.5809 64.0296 65.4276 64.0296 64.9588C64.0296 64.3456 64.3903 64.0571 64.778 64.3456Z" fill="black"/>
<path d="M66.2164 63.8222C66.1803 63.9034 66.1803 64.3362 66.1984 64.787C66.2344 65.5715 66.2525 65.6165 66.523 65.86C66.7754 66.0854 66.8836 66.1215 67.3615 66.1215C68.3263 66.1215 68.5246 65.86 68.5246 64.5436V63.687H68.164H67.8033V64.4805C67.8033 65.4001 67.7041 65.6075 67.3074 65.5624L67.0369 65.5354L66.9918 64.6337L66.9467 63.7321L66.6041 63.705C66.3607 63.687 66.2525 63.714 66.2164 63.8222Z" fill="black"/>
<path d="M69.0674 64.8952V66.1215H69.428H69.7887V65.6797C69.7887 64.9854 69.951 64.9854 70.3567 65.6887C70.6002 66.1034 70.6272 66.1215 71.0059 66.1215C71.2313 66.1215 71.4117 66.1034 71.4117 66.0854C71.4117 66.0133 71.033 65.3641 70.8977 65.2108C70.7986 65.0936 70.8166 65.0395 71.0059 64.8772C71.2764 64.6428 71.3035 64.246 71.06 63.9485C70.9068 63.7591 70.7986 63.7321 69.9781 63.705L69.0674 63.669V64.8952ZM70.4649 64.4534C70.4649 64.5977 70.3928 64.6428 70.1313 64.6608C69.8158 64.6878 69.7887 64.6698 69.7887 64.4534C69.7887 64.237 69.8158 64.219 70.1313 64.246C70.3928 64.2641 70.4649 64.3091 70.4649 64.4534Z" fill="black"/>
<path d="M71.7773 64.9042V66.1215H72.138H72.4987V64.9042V63.687H72.138H71.7773V64.9042Z" fill="black"/>
<path d="M73.2924 63.9608C72.8325 64.4297 73.0579 64.8445 73.9325 65.133C74.2391 65.2322 74.3473 65.3133 74.3473 65.4486C74.3473 65.71 73.8965 65.7461 73.7612 65.5027C73.6981 65.3674 73.5719 65.3133 73.3645 65.3133C73.2022 65.3133 73.0489 65.3404 73.0128 65.3674C72.9317 65.4576 73.2022 65.9264 73.3915 66.0346C73.626 66.1519 74.5366 66.1519 74.762 66.0256C75.0416 65.8814 75.2039 65.4305 75.0957 65.115C74.9965 64.8264 74.7981 64.7002 74.212 64.5469C73.9686 64.4838 73.8063 64.3936 73.8063 64.3125C73.8063 64.1322 74.1579 64.1051 74.3022 64.2764C74.3653 64.3486 74.5547 64.4117 74.717 64.4117C74.9604 64.4117 75.0235 64.3756 75.0235 64.2404C75.0235 63.9248 74.5997 63.6903 74.0588 63.6903C73.635 63.6903 73.5268 63.7264 73.2924 63.9608Z" fill="black"/>
<path d="M75.6246 63.7501C75.5886 63.7772 75.5615 64.3272 75.5615 64.9673V66.1215H75.8771H76.1927L76.2017 65.2829V64.4534L76.3189 64.8591C76.391 65.0846 76.4902 65.4542 76.5533 65.6887C76.6615 66.0944 76.6886 66.1215 76.9501 66.1215C77.2386 66.1215 77.2476 66.1124 77.4009 65.4182C77.6173 64.5165 77.7345 64.3091 77.7165 64.9042C77.7075 65.1477 77.6984 65.5264 77.7075 65.7337C77.7255 66.1034 77.7435 66.1215 77.996 66.1215H78.2665V64.9042V63.687H77.8157C77.5271 63.687 77.3468 63.7321 77.3197 63.7952C77.3017 63.8583 77.2115 64.1739 77.1124 64.4985L76.9501 65.0846L76.8419 64.769C76.7878 64.5977 76.6976 64.2821 76.6435 64.0657L76.5443 63.687H76.1115C75.8771 63.687 75.6517 63.714 75.6246 63.7501Z" fill="black"/>
</svg>
