<svg width="88" height="61" viewBox="0 0 88 61" fill="none" xmlns="http://www.w3.org/2000/svg">
<path d="M43.8252 1.21476C43.3383 1.97215 37.9915 10.4747 37.4054 11.4034C37.1259 11.8633 32.6808 18.8691 31.2742 21.0782C30.8144 21.7995 30.3906 22.4757 30.3365 22.5929C30.2734 22.7102 30.1922 22.7913 30.1471 22.7733C30.066 22.7462 28.6233 20.4019 24.8093 14.0904C23.9708 12.7018 23.0962 11.2592 22.8708 10.8895C22.6454 10.5198 21.9872 9.43783 21.4191 8.50011C20.8511 7.55338 20.3372 6.73288 20.2831 6.67878C20.1839 6.57058 19.715 7.2919 16.7756 12.0616C16.3338 12.783 15.874 13.5133 15.7658 13.6846C15.6486 13.8559 14.9182 15.0371 14.1428 16.2994C13.3584 17.5617 12.1411 19.5273 11.4378 20.6724C10.7255 21.8085 9.14765 24.3692 7.9214 26.3528C6.69515 28.3365 5.59514 30.1037 5.48694 30.275C4.69348 31.4922 0.933594 37.5874 0.933594 37.6596C0.933594 37.7227 6.614 37.8038 17.7945 37.8759C20.1749 37.894 20.5445 37.912 20.5355 38.0292C20.5265 38.1464 19.715 39.4538 16.1535 45.0441C15.7658 45.6572 15.4502 46.1892 15.4502 46.2252C15.4502 46.2613 19.6429 46.3244 24.7643 46.3515C42.2293 46.4687 58.8557 46.5859 65.564 46.649C69.2428 46.6761 72.2543 46.6761 72.2543 46.649C72.2543 46.5859 71.9658 46.108 70.6764 44.0252C68.9903 41.3112 68.4674 40.4637 68.0346 39.7424C67.8092 39.3727 67.5567 38.9579 67.4575 38.8227C67.3673 38.6965 67.2952 38.5522 67.2952 38.5071C67.2952 38.462 68.0436 38.444 68.9903 38.453C69.919 38.471 74.4633 38.5432 79.0888 38.6243C83.7233 38.6965 87.5193 38.7506 87.5463 38.7325C87.5644 38.7145 87.357 38.3358 87.0955 37.894C86.266 36.4964 82.3438 29.9053 81.92 29.193C81.6946 28.8234 81.1266 27.8676 80.6397 27.0742C80.1618 26.2807 79.3774 24.9823 78.9085 24.1889C77.6732 22.106 74.6256 16.9847 72.1822 12.8731C71.01 10.9165 69.7928 8.86078 69.4772 8.31978C69.1526 7.76978 68.8461 7.27387 68.7829 7.21075C68.7018 7.12059 68.3772 7.57141 67.2591 9.32964C66.4747 10.5559 65.3927 12.251 64.8517 13.0985C62.0296 17.4806 59.7213 21.1052 58.7836 22.602C58.441 23.152 58.1344 23.6028 58.1074 23.6028C58.0803 23.6028 57.9541 23.4315 57.8369 23.2151C57.5844 22.7552 57.6295 22.8274 53.6712 16.4347C53.3016 15.8486 52.968 15.2896 52.9139 15.1994C52.7516 14.9109 51.6515 13.1256 49.4425 9.5821C48.2433 7.64355 47.0892 5.77712 46.8728 5.4345C45.8539 3.77546 44.1047 0.926236 44.0777 0.899186C44.0596 0.881153 43.9424 1.0164 43.8252 1.21476ZM44.799 16.6691C45.2318 16.8314 45.4031 16.9666 45.9711 17.6429C46.7556 18.5535 47.6121 19.7437 47.7384 20.0503C47.8015 20.2396 47.7835 20.2847 47.5941 20.3749C47.4679 20.429 47.3507 20.456 47.3416 20.438C47.3236 20.42 46.972 19.9421 46.5662 19.3831C46.1515 18.8331 45.8088 18.3732 45.7908 18.3732C45.7638 18.3732 45.5564 18.4994 45.3219 18.6437C44.7719 18.9953 44.4023 19.0945 43.6629 19.0945C42.9867 19.0945 42.5539 18.9232 42.0129 18.4273L41.6612 18.1027L41.2916 18.4273C39.5333 19.9872 39.1637 20.7536 39.1637 22.8454V24.0266L38.9202 24.1348C38.4964 24.3241 38.4514 24.1708 38.5415 22.7462C38.6768 20.5282 38.8391 19.924 39.5423 19.0765C41.2104 17.0388 43.2752 16.101 44.799 16.6691ZM19.9675 20.6995C20.2109 20.9159 20.247 20.988 20.1839 21.2405C20.1478 21.4028 20.0216 21.6011 19.9044 21.6823C19.7421 21.7815 19.688 21.8987 19.688 22.106C19.697 22.2593 19.6339 22.5839 19.5437 22.8184C19.3904 23.2602 19.3904 23.2602 19.6068 23.4766L19.8232 23.6839L20.238 23.4134C20.6527 23.152 21.5093 22.7913 21.7347 22.7913C21.9511 22.7913 21.8519 22.9266 21.5183 23.1069C21.329 23.2061 20.8691 23.5848 20.4904 23.9364C20.1117 24.2971 19.7781 24.5946 19.7421 24.5946C19.6248 24.5946 18.8855 24.0085 18.8765 23.9184C18.8765 23.8643 18.9576 23.5667 19.0568 23.2511C19.156 22.9085 19.2011 22.629 19.156 22.5749C19.1109 22.5208 19.0568 22.3765 19.0388 22.2593C19.0117 22.0429 19.0117 22.0429 18.6961 22.3585C18.5248 22.5388 18.2634 22.8274 18.1281 23.0077C17.8576 23.3413 17.6142 23.4315 17.6142 23.197C17.6142 23.1249 17.7494 22.8093 17.9117 22.5028C18.1281 22.079 18.2994 21.8806 18.633 21.6823C18.9757 21.4659 19.0748 21.3396 19.156 21.0421C19.2462 20.6995 19.4355 20.447 19.6158 20.447C19.6519 20.447 19.8142 20.5642 19.9675 20.6995ZM48.1802 21.015C48.1802 21.2224 48.2162 21.538 48.2703 21.7093C48.3335 21.9167 48.3244 22.1872 48.2523 22.5659C48.1982 22.8634 48.1441 23.4585 48.1441 23.8913C48.1351 24.6397 48.1261 24.6938 47.8646 24.9463C47.5671 25.2438 47.4138 25.2708 46.1785 25.2258C45.7367 25.2167 45.4662 25.1626 45.4662 25.0995C45.4572 25.0454 45.4572 24.8381 45.4662 24.6397C45.4752 24.4413 45.4211 24.0446 45.349 23.7561C45.2228 23.2872 45.2228 23.179 45.34 22.8544C45.5023 22.3946 45.5113 22.061 45.376 21.7634C45.2408 21.4839 45.4031 21.2314 45.6916 21.2765C45.9801 21.3216 46.1424 21.9798 46.0162 22.6561C45.9531 23.0348 45.9441 23.2962 46.0162 23.5126C46.0613 23.6839 46.1064 23.9725 46.1064 24.1438V24.4594L46.6293 24.4864C47.0892 24.5044 47.1793 24.4774 47.3597 24.288C47.549 24.0807 47.558 24.0356 47.4679 23.6118C47.3867 23.2151 47.3957 23.0979 47.5671 22.6561C47.7564 22.1692 47.7564 22.1331 47.6121 21.6733C47.3597 20.8888 47.4408 20.6273 47.9277 20.6273C48.1621 20.6273 48.1802 20.6544 48.1802 21.015ZM43.3834 21.6733L43.7801 22.106L43.717 22.647C43.69 22.9536 43.6719 23.5397 43.6719 23.9635C43.6809 24.8741 43.5547 25.1176 42.9055 25.37C42.5539 25.4963 42.4367 25.5053 42.0309 25.4151C41.553 25.3069 40.6063 25.2348 39.5784 25.2258C39.2809 25.2167 38.9833 25.1717 38.9202 25.1176C38.7218 24.9553 38.785 24.6126 39.0284 24.4503C39.2448 24.3061 39.2809 24.3061 39.6325 24.4684C39.9842 24.6217 40.5522 24.6848 41.9498 24.6938C42.626 24.7028 42.7883 24.5225 42.8785 23.6659C42.9145 23.3143 42.9686 22.8454 43.0047 22.638C43.0588 22.2864 43.0408 22.2323 42.7342 21.9257C42.4367 21.6282 42.3826 21.6101 42.0309 21.6642C41.526 21.7454 41.3457 21.9347 41.2735 22.4487C41.2284 22.7733 41.2465 22.9356 41.3637 23.1069C41.544 23.3774 41.8416 23.3864 41.9948 23.1249C42.076 22.9897 42.058 22.9266 41.8866 22.7913C41.7153 22.647 41.6973 22.5839 41.7784 22.4306C41.9317 22.1511 42.3375 22.1872 42.5268 22.5118C42.7432 22.8815 42.644 23.5487 42.3375 23.7831C42.0309 24.0266 41.2555 24.0356 40.994 23.7921C40.7866 23.6028 40.6514 22.8634 40.7506 22.4577C40.976 21.529 41.517 21.1323 42.4547 21.2044C42.9686 21.2405 43.0137 21.2675 43.3834 21.6733ZM23.1593 23.179L23.8536 23.8372L23.6462 24.1798C23.511 24.4233 23.4118 24.4954 23.3036 24.4503C23.2224 24.4233 22.9159 24.3151 22.6183 24.2069C21.9872 23.9995 21.9511 23.9815 22.1134 23.8823C22.1765 23.8372 22.411 23.8643 22.6544 23.9364C22.8798 24.0085 23.1413 24.0897 23.2315 24.1167C23.3306 24.1528 23.3847 24.1167 23.3847 24.0176C23.3847 23.9364 23.3487 23.8733 23.3036 23.8733C23.2585 23.8733 23.0151 23.711 22.7626 23.5126C22.4019 23.2241 22.3028 23.0888 22.3028 22.8905C22.3028 22.6831 22.3659 22.5208 22.447 22.5208C22.456 22.5208 22.7716 22.8184 23.1593 23.179ZM70.2707 23.197C70.3067 23.2241 70.3698 23.4134 70.3969 23.6389C70.433 23.8553 70.5141 24.1077 70.5862 24.1979C70.7215 24.3602 70.7305 24.3602 70.9289 24.1348C71.3166 23.6749 72.065 23.5036 72.5428 23.7471C72.8133 23.8913 72.8223 23.9003 72.66 24.0176C72.5699 24.0897 72.2723 24.1438 72.0109 24.1438C71.6322 24.1438 71.5149 24.1798 71.4789 24.2971C71.4518 24.3872 71.3526 24.6397 71.2715 24.8651C71.1182 25.2528 71.1182 25.2889 71.2805 25.7848C71.6322 26.8307 72.3354 27.1733 72.8945 26.5692C73.2191 26.2266 73.2371 25.7758 72.9756 24.9463C72.7953 24.3782 72.8223 24.1798 73.0838 24.279C73.3182 24.3692 73.4986 24.8741 73.5887 25.7217C73.6969 26.6594 73.6519 26.7856 73.0658 27.1733C72.7592 27.3807 72.633 27.4078 72.2092 27.3717C71.5059 27.3086 71.3076 27.1553 70.7756 26.2086C70.6223 25.9471 70.5502 24.9913 70.6674 24.7569C70.7215 24.6397 70.6764 24.5946 70.442 24.5495C70.1985 24.4954 70.1174 24.5225 69.9912 24.6758C69.883 24.811 69.7387 24.8651 69.4682 24.8651C69.0624 24.8651 68.9813 24.7749 68.8821 24.1979C68.819 23.8913 68.792 23.8553 68.5936 23.9003C68.4493 23.9274 68.3772 23.9003 68.3772 23.8192C68.3772 23.7471 68.4403 23.693 68.5124 23.693C68.5846 23.693 68.6477 23.6479 68.6477 23.6028C68.6477 23.5487 68.837 23.4134 69.0805 23.2872C69.4682 23.0888 70.0272 23.0438 70.2707 23.197ZM21.7978 24.0717C21.7708 24.1889 21.5634 24.5225 21.356 24.82C20.4003 26.1725 20.3462 26.3168 20.2019 27.8856C20.1208 28.6881 19.9224 29.6889 19.8322 29.7521C19.6339 29.8783 19.6068 29.6619 19.688 28.652C19.733 28.084 19.7781 27.2905 19.7781 26.8848C19.7781 26.2266 19.9044 25.6766 20.0667 25.6766C20.1027 25.6766 20.265 25.4872 20.4183 25.2438C20.9052 24.5495 21.5273 23.8733 21.6986 23.8733C21.8249 23.8733 21.8519 23.9184 21.7978 24.0717ZM17.4338 24.1798C17.4338 24.243 17.3888 24.4323 17.3347 24.5946L17.2265 24.8922L16.451 24.811C15.0625 24.6758 14.6477 24.7028 14.0256 24.9823C13.5026 25.2167 13.2862 25.2348 13.2862 25.0364C13.2862 24.9913 13.3403 24.9553 13.4034 24.9553C13.4756 24.9553 13.7641 24.784 14.0617 24.5766C14.5395 24.2249 14.6567 24.1889 15.2699 24.1348C16.6133 24.0266 17.4338 24.0446 17.4338 24.1798ZM72.3625 24.7028C72.7412 25.0725 73.0478 25.9381 72.9125 26.2987C72.8404 26.5151 72.7953 26.5332 72.3895 26.5061C72.1461 26.4881 71.8756 26.434 71.7854 26.3889C71.6322 26.3077 71.3526 25.5413 71.3526 25.1897C71.3526 25.0184 71.8486 24.4143 71.9928 24.4143C72.0289 24.4143 72.2002 24.5495 72.3625 24.7028ZM19.138 25.5774C19.4355 25.902 19.4355 25.911 19.3904 26.5692C19.3363 27.2365 19.2101 27.543 19.0658 27.3176C18.9847 27.1824 16.6855 26.5963 15.9371 26.5151L15.3871 26.461L14.6838 27.4889C13.9805 28.5258 13.6469 29.157 13.6469 29.4635C13.6469 29.6078 13.4846 29.734 13.2772 29.734C13.151 29.734 13.178 29.0578 13.3493 28.3545C13.4395 27.9578 13.5026 27.3176 13.5116 26.7135C13.5116 26.1635 13.5477 25.6946 13.6018 25.6586C13.6559 25.6225 13.7912 25.5864 13.8994 25.5864C14.1158 25.5864 14.1158 25.5954 14.0797 26.4971C14.0617 27.1283 14.0797 27.3537 14.1428 27.2455C14.1969 27.1643 14.3141 26.993 14.4223 26.8578C14.5305 26.7315 14.6567 26.5332 14.7108 26.434C14.8912 26.0914 16.7215 25.9381 17.7584 26.1815C17.9117 26.2176 17.9658 26.1635 18.065 25.8479C18.1371 25.6315 18.2994 25.343 18.4166 25.1987C18.624 24.9553 18.6511 24.9463 18.7412 25.0905C18.7863 25.1807 18.9666 25.3971 19.138 25.5774ZM69.6485 25.2258C69.7387 25.2799 69.8198 25.361 69.8198 25.4061C69.8198 25.5413 69.2969 25.7938 68.6477 25.9741C67.9534 26.1725 66.3936 26.2897 66.3936 26.1364C66.3936 26.0282 66.5919 25.9741 67.3403 25.911C67.728 25.875 68.0706 25.7577 68.5575 25.5053C69.2969 25.1176 69.387 25.0905 69.6485 25.2258ZM45.2498 26.2086C45.8449 26.3077 46.7375 26.4971 47.2334 26.6233C48.3244 26.9209 49.2531 27.1463 50.1909 27.3446C50.831 27.4799 51.0655 27.6512 50.5876 27.6422C50.2991 27.6332 47.9097 27.4078 47.008 27.2996C46.0433 27.1914 44.5195 27.1824 42.7973 27.2905C40.8407 27.4168 34.3849 27.5069 34.3849 27.4078C34.3849 27.2545 36.2874 26.7856 38.0456 26.4971C40.6965 26.0643 43.5998 25.9471 45.2498 26.2086ZM70.1715 26.3709C70.2346 26.4971 70.2436 26.6414 70.2075 26.6774C70.0182 26.8668 66.3936 26.7676 66.3936 26.5692C66.3936 26.4791 67.1419 26.3889 67.701 26.4069C68.0706 26.425 68.828 26.3348 69.6395 26.1725C69.9731 26.1094 70.0723 26.1455 70.1715 26.3709ZM66.628 28.6701C66.4386 30.7439 66.3034 31.6275 66.1862 31.6275C66.078 31.6275 66.1681 29.6619 66.3575 28.1561C66.5198 26.8758 66.5378 26.7766 66.6821 26.9209C66.7632 27.002 66.7452 27.4348 66.628 28.6701ZM70.2707 27.3446C70.3879 27.4709 70.469 27.5881 70.442 27.6061C70.4239 27.6242 70.0453 27.9037 69.5944 28.2283C69.1526 28.5529 68.6477 28.9316 68.4944 29.0578C68.1608 29.3283 67.4846 30.266 67.3042 30.6988C67.2411 30.8521 67.1239 31.0054 67.0518 31.0324C66.7182 31.1586 67.196 29.9144 67.8452 28.9496C68.0165 28.6971 68.3772 28.3094 68.6477 28.075C69.1526 27.6422 69.892 27.1192 70.0002 27.1192C70.0362 27.1192 70.1534 27.2184 70.2707 27.3446ZM71.8576 27.7233C71.8846 27.8135 72.0199 28.1471 72.1641 28.4627C72.3805 28.9406 72.5158 29.1119 73.0387 29.5086C73.3723 29.7611 73.742 30.0226 73.8592 30.0857C74.1658 30.248 74.0215 30.3472 73.5887 30.266C73.3723 30.2299 72.9937 30.1939 72.7322 30.1849C71.7584 30.1849 71.1272 29.9594 70.3428 29.3463L70.0002 29.0848L69.2338 29.6439C68.81 29.9504 68.251 30.4193 67.9985 30.6898C67.5206 31.1767 67.3854 31.2668 67.3854 31.0775C67.3854 30.9963 68.1337 29.9594 68.5305 29.4996C68.7018 29.3012 70.1264 28.2012 70.2075 28.2012C70.2346 28.2012 70.4871 28.4356 70.7576 28.7242C71.0371 29.0127 71.4789 29.3553 71.7313 29.4906C72.5789 29.9053 73.0478 29.9144 72.4076 29.4996C72.2363 29.3824 71.9928 29.0758 71.8215 28.7512C71.6592 28.4537 71.4248 28.084 71.3076 27.9488C71.0551 27.6422 71.0912 27.5701 71.5059 27.5701C71.7133 27.5701 71.8215 27.6151 71.8576 27.7233ZM18.3355 30.3652C19.3363 30.4644 20.4454 30.7168 21.0765 30.9873C21.9511 31.375 23.0241 31.925 23.0241 32.0062C23.0241 32.1234 22.7716 32.0964 21.2027 31.8078C19.4175 31.4742 17.4068 31.3209 16.5502 31.4472C16.2166 31.5013 15.3149 31.5734 14.5485 31.6275C13.7821 31.6726 12.7633 31.7627 12.2944 31.8168C11.3928 31.9341 11.3928 31.9341 11.3837 31.8349C11.3747 31.7177 14.4043 30.807 15.6305 30.5635C17.2355 30.248 17.1633 30.248 18.3355 30.3652ZM38.6227 30.7439C38.6227 30.834 38.7218 31.1136 38.8481 31.348C39.1096 31.8709 39.0555 31.9611 38.4243 31.9972C37.8202 32.0332 37.739 31.916 37.9374 31.366C38.0186 31.1316 38.0997 30.834 38.0997 30.7168C38.1177 30.3562 38.262 30.248 38.4514 30.4193C38.5505 30.5094 38.6227 30.6537 38.6227 30.7439ZM36.6841 31.2578C37.0267 31.5373 37.4685 31.916 37.6669 32.0964C38.0546 32.475 38.3792 32.5382 38.5325 32.2587C38.5866 32.1595 38.6948 32.0783 38.7669 32.0783C38.9653 32.0783 38.8481 32.43 38.5595 32.6914C38.3702 32.8628 38.262 32.8898 38.0276 32.8537C37.6399 32.7726 37.5948 32.8808 37.8292 33.3046C38.1718 33.9447 38.8841 34.6841 39.3981 34.9275C39.8579 35.1439 39.885 35.1439 40.1104 34.9997C40.435 34.7923 40.4801 34.8915 40.2096 35.2071C40.0833 35.3603 40.0022 35.5046 40.0383 35.5317C40.1465 35.6398 39.8489 35.8833 39.6505 35.8382C39.5153 35.8112 39.2628 35.9464 38.8481 36.262C36.7743 37.8309 35.7374 38.5161 35.7374 38.2997C35.7374 38.2456 36.0079 38.0112 36.3325 37.7768C36.6661 37.5423 37.3063 37.0735 37.7571 36.7308C38.2079 36.3972 38.7489 35.9915 38.9563 35.8472L39.326 35.5677L39.1907 35.2702C39.1005 35.0898 38.9382 34.9366 38.7759 34.8825C38.6317 34.8284 38.3882 34.6841 38.235 34.5579C38.0727 34.4316 37.7751 34.1972 37.5677 34.0349C37.3604 33.8726 37.0087 33.5931 36.7833 33.4038C36.3235 33.016 36.3325 33.007 35.4038 33.6382L34.9439 33.9538L35.3046 33.9988C35.5841 34.0349 35.7825 33.9898 36.2153 33.7824L36.7743 33.521L36.9095 33.7193C37.144 34.071 37.8472 34.63 38.4243 34.9366C38.7579 35.1079 38.785 35.198 38.5415 35.2792C38.4243 35.3153 38.0727 35.18 37.5497 34.9185C36.7923 34.5398 36.7292 34.4948 36.7833 34.2874L36.8374 34.062L36.4226 34.2964C36.1972 34.4226 36.0079 34.5398 36.0079 34.5579C36.0079 34.5759 36.1071 34.8013 36.2333 35.0718C36.4587 35.5497 36.5398 36.4243 36.3866 36.6317C36.2964 36.7669 35.3767 37.5153 35.0882 37.6956C34.6193 37.9841 34.7997 37.6325 35.3947 37.0825L35.9448 36.5686L35.8366 36.1087C35.6111 35.189 35.4669 34.8915 35.1513 34.7472C34.989 34.6661 34.8357 34.6029 34.8087 34.6029C34.7816 34.6029 34.8447 34.8464 34.9349 35.153C35.0251 35.4505 35.1062 35.739 35.1062 35.7841C35.1062 35.9644 34.7726 35.8472 34.5923 35.6128C33.8619 34.63 33.9611 34.0169 34.971 33.2234C35.6292 32.7095 36.603 32.1685 36.8735 32.1685C36.9907 32.1685 37.0899 32.1414 37.0899 32.0964C37.0899 31.9701 35.8997 31.2668 35.6833 31.2668C35.521 31.2668 35.521 31.0865 35.7013 30.834C35.8636 30.5996 35.8456 30.5906 36.6841 31.2578ZM71.9387 31.4472C73.0658 31.6365 74.6888 32.0783 75.2298 32.3398C76.2757 32.8628 77.3577 33.4579 77.3847 33.539C77.4298 33.6742 76.5462 33.539 75.9511 33.3226C75.6806 33.2234 75.1757 33.0431 74.842 32.9169C74.2019 32.6914 72.5158 32.3849 71.4067 32.2947C71.0371 32.2587 70.2707 32.2947 69.5944 32.3759C68.0887 32.5562 64.9509 32.6734 64.9509 32.5472C64.9509 32.421 65.4198 32.2226 66.2583 31.9882C66.655 31.88 67.0788 31.7537 67.205 31.7086C67.3313 31.6636 67.8001 31.5463 68.2419 31.4562C69.3149 31.2218 70.5862 31.2218 71.9387 31.4472ZM50.8491 32.3578L51.1737 32.5562L50.9843 32.7365C50.813 32.9078 50.786 32.9078 50.6417 32.7816C50.3982 32.5742 50.0827 32.5021 49.9384 32.6193C49.7491 32.7726 49.7761 33.016 49.9925 33.2144C50.1728 33.3767 50.1818 33.3767 50.3261 33.1874C50.4614 33.016 50.5064 33.007 50.7409 33.1062C50.9933 33.2054 51.0294 33.1964 51.2909 32.9078L51.5704 32.6013L52.1024 32.7546C52.6884 32.9259 53.3196 33.2505 53.3196 33.3767C53.3196 33.4218 52.9589 33.4308 52.5081 33.4128L51.6876 33.3587L51.4802 33.6472C51.372 33.8005 51.2278 34.0529 51.1646 34.2152C51.1015 34.3685 50.7499 34.7833 50.3712 35.1439C49.7581 35.73 49.6679 35.7841 49.3704 35.7571C49.154 35.739 49.0277 35.6849 49.0097 35.5858C48.9736 35.3874 49.2261 35.1439 49.4786 35.1439C49.74 35.1439 50.8851 33.9628 50.8851 33.6833C50.8851 33.6382 50.804 33.6111 50.7048 33.6111C50.6056 33.6111 50.5245 33.6472 50.5245 33.6833C50.5245 33.7283 50.4704 33.8275 50.4073 33.9267C50.29 34.08 50.272 34.08 49.9925 33.8726C49.4605 33.4849 49.2712 32.7726 49.5868 32.3849C49.8032 32.1144 50.4433 32.1054 50.8491 32.3578ZM54.5729 34.0259C55.2762 34.6841 55.3663 34.9275 55.0327 35.3513C54.8885 35.5317 54.6811 35.6218 54.1491 35.739C53.7704 35.8202 53.3917 35.9194 53.3106 35.9644C53.1573 36.0456 52.8688 36.7579 52.8688 37.0554C52.8688 37.344 52.6884 37.2268 52.6794 36.9202C52.6434 36.0907 52.6975 35.9284 53.1303 35.5136C53.3557 35.2972 53.6803 35.0177 53.8426 34.8915L54.1401 34.6661L53.8696 34.4136C53.6442 34.2152 53.5901 34.089 53.5901 33.8005C53.5901 33.2685 53.8065 33.3136 54.5729 34.0259ZM52.7335 34.2693C52.9139 34.3775 52.9139 34.3775 52.7245 34.4046C52.6253 34.4136 52.3188 34.612 52.0483 34.8374C51.3901 35.3874 51.0024 35.6308 50.5605 35.7571C50.1097 35.8923 50.0736 35.8923 50.0736 35.7751C50.0736 35.721 50.1638 35.6489 50.281 35.6038C50.3892 35.5587 50.804 35.198 51.2007 34.8013C51.8679 34.1431 51.9491 34.089 52.2376 34.1251C52.4089 34.1521 52.6343 34.2152 52.7335 34.2693ZM53.2294 34.648C53.2294 34.7202 53.1032 34.8734 52.9499 34.9816C52.445 35.3513 52.3097 35.6939 52.3188 36.5235C52.3188 37.0104 52.3819 37.4522 52.4991 37.8038C52.5983 38.1014 52.6884 38.4079 52.6884 38.4801C52.6884 38.5973 52.0302 38.994 51.5794 39.1473C51.2368 39.2555 51.3089 38.7776 51.7056 38.3448C51.8589 38.1735 51.8589 38.1284 51.7417 37.6686C51.5343 36.9112 51.5704 36.1538 51.8138 35.7661C52.3458 34.9095 53.2294 34.2062 53.2294 34.648ZM54.9426 36.1808C54.8795 36.253 54.7713 36.3161 54.7081 36.3161C54.5368 36.3161 54.0409 37.1005 54.0409 37.362C54.0409 37.5243 54.104 37.5694 54.4467 37.6235C54.9336 37.6956 54.8975 37.8489 54.3926 37.8489C53.9958 37.8489 53.9508 37.9571 54.1672 38.3809C54.2844 38.5973 54.9065 39.1112 55.0508 39.1112C55.0868 39.1112 55.159 38.9669 55.2131 38.7956C55.2672 38.6243 55.3754 38.4801 55.4475 38.4801C55.6008 38.4801 55.6008 38.5161 55.4836 38.9309C55.3754 39.3096 55.4836 39.3997 55.9344 39.3276C56.5024 39.2374 56.836 39.1022 56.9713 38.9038C57.1426 38.6604 57.2598 38.7686 57.1246 39.0571C56.9983 39.3456 56.1688 39.6612 55.3844 39.7153C54.8524 39.7604 54.7442 39.7424 54.3655 39.517C54.1311 39.3817 53.8516 39.1473 53.7344 38.985C53.1303 38.1915 53.2565 36.9202 54.0049 36.3431C54.5819 35.9103 55.2672 35.7931 54.9426 36.1808ZM56.286 36.0095C57.359 36.3251 57.9451 37.5514 57.4131 38.3719C57.2328 38.6514 57.0885 38.5342 57.1606 38.1555L57.2147 37.8399L56.7549 37.903C56.4664 37.9391 56.2951 37.93 56.2951 37.8669C56.2951 37.7677 56.5926 37.6686 56.9533 37.6686C57.2959 37.6686 57.341 37.4792 57.1156 37.0104C56.8901 36.5505 56.7008 36.3612 56.3762 36.289C56.1688 36.2349 56.1328 36.262 56.0155 36.6497C55.9434 36.8841 55.8262 37.0915 55.7631 37.1095C55.6639 37.1456 55.6459 37.0464 55.7 36.5956C55.7541 36.0817 55.7541 36.0456 55.5827 36.0456C55.4836 36.0456 55.3754 36.0005 55.3483 35.9554C55.2672 35.8202 55.745 35.8472 56.286 36.0095ZM35.4669 36.1087C35.4669 36.3882 35.0251 37.0013 34.5201 37.4341C34.2406 37.6776 33.9972 37.8489 33.9701 37.8218C33.8529 37.7136 34.421 36.7579 34.8357 36.3702C35.3046 35.9284 35.4669 35.8653 35.4669 36.1087ZM48.6671 36.3071C48.7031 36.3522 48.622 36.4243 48.5048 36.4694C48.081 36.6136 47.2785 37.4612 47.2785 37.7677C47.2785 37.8669 47.3687 37.9391 47.549 37.9751C47.7023 38.0022 47.9458 38.0563 48.09 38.0833C48.5949 38.1825 48.3785 38.3178 47.7744 38.2817C47.4048 38.2637 47.1974 38.2907 47.2154 38.3448C47.2334 38.3899 47.3056 38.5792 47.3687 38.7596C47.4498 38.985 47.6212 39.1743 47.9187 39.3727C48.4958 39.7514 48.613 39.7334 48.6851 39.2915C48.7663 38.7776 48.9917 38.8046 48.9917 39.3366C48.9917 39.7965 48.9917 39.7965 49.731 39.6161C50.29 39.4899 50.8401 39.1292 50.9302 38.8407C51.0204 38.5612 51.1196 38.6243 51.1106 38.9669C51.0925 39.4719 50.5245 40.0489 49.7581 40.3465C49.3884 40.4998 49.0007 40.5899 48.8113 40.5719C47.2966 40.4457 46.5752 39.3727 46.9179 37.7768C47.0261 37.2809 47.513 36.7399 48.1351 36.4243C48.5499 36.2079 48.604 36.1989 48.6671 36.3071ZM49.6318 36.4423C50.29 36.6407 50.5876 36.83 50.8401 37.1907C51.0655 37.5243 51.1466 37.9391 50.9843 37.9391C50.9392 37.9391 50.8671 37.8489 50.831 37.7317C50.7228 37.38 50.4253 37.0374 50.0736 36.8571C49.8753 36.7579 49.704 36.6767 49.6769 36.6767C49.6589 36.6767 49.6138 36.83 49.5777 37.0194C49.5056 37.4792 49.3884 37.6505 49.2531 37.5153C49.172 37.4341 49.172 37.335 49.2531 37.1186C49.3974 36.7038 49.3794 36.5866 49.172 36.5866C49.0728 36.5866 48.9917 36.5235 48.9917 36.4513C48.9917 36.28 49.0999 36.28 49.6318 36.4423ZM33.0505 37.4973C33.6996 37.9391 34.439 38.4169 34.6915 38.5432C34.9439 38.6694 35.3226 38.8948 35.539 39.0391C35.7464 39.1833 36.2333 39.4538 36.621 39.6342C37.2522 39.9407 37.3874 39.9678 38.1087 39.9768C38.8571 39.9858 39.1997 40.094 39.0374 40.2563C39.0014 40.3014 38.5776 40.3284 38.0997 40.3284C37.3964 40.3284 37.144 40.2924 36.8194 40.1391C36.5939 40.0309 36.2603 39.8956 36.071 39.8325C35.8907 39.7784 35.548 39.5981 35.3046 39.4358C35.0702 39.2735 34.6193 38.994 34.2947 38.8046C33.9701 38.6243 33.5103 38.3538 33.2668 38.2005C33.0234 38.0563 32.5636 37.7858 32.239 37.6145C31.2742 37.0915 31.0398 36.8571 31.3463 36.7399C31.6709 36.6046 31.9504 36.7308 33.0505 37.4973ZM55.6639 37.4882C55.7631 37.5514 55.7721 37.6145 55.7 37.7317C55.5647 37.9481 55.4024 37.9841 55.3393 37.8128C55.2762 37.6505 55.3483 37.3981 55.4565 37.3981C55.4926 37.3981 55.5918 37.4432 55.6639 37.4882ZM30.2553 38.1194C31.3734 38.3087 32.9423 38.7776 33.871 39.2014C36.1251 40.2202 37.5407 41.0137 38.8841 42.0145C39.1997 42.258 39.5063 42.4473 39.5514 42.4473C39.6686 42.4473 40.2456 42.9883 40.2456 43.0965C40.2456 43.2137 39.9391 43.1777 39.7407 43.0424C39.5514 42.9072 38.4694 42.4563 37.7661 42.2129C37.5677 42.1498 36.5759 41.699 35.557 41.2211C31.7701 39.4448 31.2471 39.2465 29.3266 38.976C28.7947 38.8948 28.1455 38.7776 27.884 38.7145C27.6135 38.6424 27.0364 38.5342 26.6036 38.471C25.4495 38.3087 25.4495 38.1825 26.5856 38.0382C27.7127 37.903 29.1373 37.93 30.2553 38.1194ZM49.3523 38.1735C49.3523 38.3538 49.181 38.4169 49.0367 38.2997C48.8204 38.1194 48.8745 37.9571 49.1269 38.0112C49.2531 38.0292 49.3523 38.1014 49.3523 38.1735ZM50.6507 38.3448C50.804 38.3719 50.8761 38.435 50.831 38.4801C50.7228 38.5883 50.1368 38.453 50.0917 38.3087C50.0646 38.2276 50.1097 38.2096 50.2179 38.2366C50.3171 38.2637 50.5064 38.3087 50.6507 38.3448ZM58.441 40.2383C59.4148 40.3645 61.4886 40.8424 61.8222 41.0227C62.1287 41.185 61.8763 41.2932 61.3533 41.2301C60.0008 41.0498 52.5261 41.2662 49.8032 41.5547C49.3343 41.6088 48.604 41.6809 48.1802 41.726C47.7564 41.7711 47.1703 41.8522 46.8728 41.8973C46.2056 42.0145 46.1965 42.0145 46.1965 41.9063C46.1965 41.8613 46.5482 41.717 46.99 41.5817C47.4228 41.4555 48.2433 41.194 48.8113 41.0137C49.3794 40.8244 50.1728 40.626 50.5696 40.5629C50.9663 40.5088 51.6606 40.4006 52.1024 40.3284C53.3106 40.1301 53.3016 40.1301 55.4475 40.112C56.7549 40.112 57.7738 40.1481 58.441 40.2383Z" fill="black"/>
<path d="M42.724 17.3863C42.4265 17.5306 42.147 17.6929 42.1109 17.729C41.9937 17.8462 42.5797 18.3511 43.0216 18.5134C43.5084 18.7027 44.1667 18.6306 44.8158 18.3241C45.0773 18.1888 45.2937 18.0536 45.2937 18.0265C45.2937 17.9904 45.1945 17.8462 45.0683 17.7109L44.8339 17.4675L44.5003 17.8642C44.3199 18.0896 44.0945 18.27 44.0044 18.27C43.8511 18.279 43.8511 18.27 44.0044 18.0265C44.0855 17.8913 44.2568 17.6749 44.3831 17.5306C44.5634 17.3322 44.5814 17.2872 44.4552 17.2872C44.374 17.2872 44.3019 17.3232 44.3019 17.3683C44.3019 17.5035 43.6347 18.279 43.5175 18.279C43.3191 18.279 43.3822 18.1077 43.7519 17.6208C43.9503 17.3683 44.0945 17.1429 44.0765 17.1249C44.0585 17.1068 43.788 17.3593 43.4814 17.6839C43.1748 18.0175 42.8773 18.27 42.8322 18.2519C42.6068 18.1798 42.697 17.9724 43.1478 17.5576C43.7248 17.0167 43.5625 16.9535 42.724 17.3863Z" fill="black"/>
<path d="M69.4834 23.8356C69.4203 23.8537 69.3662 23.9529 69.3662 24.052C69.3662 24.2324 69.4023 24.2594 69.8441 24.3496L70.0875 24.4037L69.9703 24.1152C69.8531 23.8266 69.6998 23.7365 69.4834 23.8356Z" fill="black"/>
<path d="M10.4159 48.4672C9.50525 48.6205 8.73885 49.1345 8.29704 49.8919C7.94539 50.4869 7.77408 51.3886 7.82818 52.3714C7.89129 53.4173 8.05359 53.9673 8.47737 54.5895C9.07246 55.455 10.0282 55.8518 11.3266 55.7796C12.5438 55.7075 13.2832 55.1936 13.761 54.1026C14.0676 53.4083 14.0315 53.3452 13.184 53.0657C12.3184 52.7862 12.2192 52.7771 12.2192 52.9575C12.2192 53.1558 11.9127 53.7419 11.7053 53.9222C11.4438 54.1657 10.8758 54.2108 10.5061 54.0214C10.0102 53.7599 9.83886 53.3722 9.8028 52.3714C9.75771 51.3165 9.88394 50.8115 10.2807 50.4148C10.5422 50.1533 10.6323 50.1173 11.0471 50.1173C11.4618 50.1173 11.552 50.1533 11.8225 50.4238C11.9938 50.5951 12.1291 50.7935 12.1291 50.8747C12.1291 50.9558 12.2012 51.0189 12.2914 51.0189C12.4807 51.0189 13.8422 50.6853 13.9053 50.6222C13.9865 50.541 13.5086 49.6214 13.211 49.2697C12.8414 48.855 12.4086 48.6295 11.7233 48.5033C11.2004 48.4041 10.8397 48.3951 10.4159 48.4672Z" fill="black"/>
<path d="M70.5982 48.457C69.4621 48.7455 69.0473 48.989 68.5514 49.6562C67.794 50.6931 67.6498 52.6857 68.2449 54.0292C68.5334 54.6784 68.9932 55.1653 69.6244 55.4808C70.1113 55.7243 70.2195 55.7423 71.1843 55.7513C72.1851 55.7513 72.2392 55.7423 72.7802 55.4538C73.5105 55.0751 74.0064 54.471 74.2589 53.6144C74.4212 53.0825 74.4482 52.821 74.4122 51.8923C74.3851 50.8914 74.3491 50.7382 74.0966 50.1881C73.754 49.4488 73.213 48.9168 72.5818 48.6824C72.1039 48.5021 70.9408 48.3758 70.5982 48.457ZM71.8244 50.3234C72.3113 50.648 72.4826 51.0988 72.4826 52.0546C72.4736 53.3169 72.2121 53.8939 71.5449 54.0923C71.1031 54.2276 70.5441 54.0653 70.2556 53.7226C69.8498 53.2447 69.7146 52.0005 69.967 51.1349C70.2375 50.2152 71.0941 49.8365 71.8244 50.3234Z" fill="black"/>
<path d="M15.1118 52.1157L15.1388 55.6592L16.7167 55.6863C18.4479 55.7133 19.5479 55.6051 20.0438 55.3617C20.2242 55.2805 20.4856 55.028 20.6389 54.8207C20.8914 54.451 20.9094 54.3698 20.9094 53.6395C20.9094 52.9182 20.8914 52.819 20.666 52.5215C20.5217 52.3501 20.2512 52.1337 20.0619 52.0436L19.7102 51.8903L19.9897 51.7009C20.9906 51.0337 20.8463 49.2575 19.7553 48.7525C19.4217 48.6083 19.1422 48.5812 17.2307 48.5812H15.0938L15.1118 52.1157ZM18.4659 50.1231C18.7274 50.2493 18.8356 50.6099 18.7094 50.9526C18.6012 51.2321 18.0963 51.4034 17.5012 51.3583L17.1225 51.3313L17.0954 50.6731L17.0684 50.0239H17.6544C17.979 50.0239 18.3397 50.069 18.4659 50.1231ZM18.7905 52.9092C19.034 53.1526 19.034 53.7206 18.7905 53.9461C18.6463 54.0723 18.4118 54.1264 17.8438 54.1534L17.0774 54.1985V53.4592V52.7288H17.8438C18.493 52.7288 18.6372 52.7559 18.7905 52.9092Z" fill="black"/>
<path d="M21.7832 49.4392V50.2958H22.775H23.7668L23.7849 52.9737L23.8119 55.6606L24.7857 55.6877L25.7505 55.7147V53.0007V50.2958H26.7423H27.7341V49.4392V48.5827H24.7587H21.7832V49.4392Z" fill="black"/>
<path d="M31.9819 52.1171L32.0089 55.6606L32.9827 55.6877L33.9475 55.7147V54.8221V53.9385L34.3983 53.4065C34.6508 53.1089 34.8852 52.8565 34.9213 52.8385C34.9664 52.8294 35.2729 53.4335 35.6156 54.1909C35.9582 54.9483 36.2828 55.5975 36.3369 55.6336C36.4902 55.7418 38.6361 55.7237 38.6361 55.6065C38.6361 55.5344 37.0672 52.595 36.3279 51.2786C36.3188 51.2515 36.6885 50.7917 37.1574 50.2417C37.6262 49.7007 38.1402 49.1056 38.2844 48.9163L38.564 48.5827H37.2656H35.9762L34.9844 49.881L33.9926 51.1794L33.9655 49.881L33.9385 48.5827H32.9557H31.9639L31.9819 52.1171Z" fill="black"/>
<path d="M40.1402 52.0323C39.5091 53.9258 38.9951 55.5307 38.9951 55.5939C38.9951 55.684 39.2205 55.7021 39.9599 55.684L40.9156 55.657L41.0689 55.116L41.2222 54.575L42.3402 54.5479L43.4673 54.5209L43.6476 55.0889L43.819 55.657L44.7116 55.684C45.2075 55.693 45.6583 55.693 45.7305 55.666C45.8116 55.6299 45.5231 54.6742 44.6575 52.0954L43.4673 48.579H42.3763H41.2943L40.1402 52.0323ZM42.737 51.7348C42.9083 52.3479 43.0255 52.8709 43.0075 52.8889C42.9534 52.943 41.7902 52.934 41.7361 52.8799C41.7091 52.8619 41.7902 52.4741 41.9165 52.0413C42.0337 51.5995 42.187 51.0585 42.2501 50.8331C42.3042 50.6077 42.3673 50.4635 42.3853 50.5176C42.4034 50.5626 42.5566 51.1126 42.737 51.7348Z" fill="black"/>
<path d="M46.6792 52.1171L46.7062 55.6606L47.68 55.6877L48.6448 55.7147V54.2631V52.8204H48.8972C49.2759 52.8204 49.4653 53.0819 50.1235 54.4704L50.7096 55.7057H51.8006C52.3956 55.7057 52.8825 55.6696 52.8825 55.6246C52.8825 55.5795 52.6481 55.0385 52.3506 54.4254C51.8366 53.3253 51.3587 52.6401 51.1153 52.6401C50.8809 52.6401 50.9891 52.4958 51.3046 52.3786C52.3776 51.9909 52.7743 50.1876 51.9989 49.2138C51.5571 48.6638 51.1694 48.5917 48.753 48.5827H46.6611L46.6792 52.1171ZM50.2227 50.2507C50.7096 50.7376 50.3669 51.3147 49.5284 51.4229C48.6989 51.5311 48.6899 51.522 48.6628 50.7196L48.6358 50.0253H49.321C49.9251 50.0253 50.0333 50.0523 50.2227 50.2507Z" fill="black"/>
<path d="M54.3004 52.0326C53.6692 53.926 53.1553 55.531 53.1553 55.5941C53.1553 55.6843 53.3807 55.7023 54.12 55.6843L55.0938 55.6572L55.2381 55.1162L55.3824 54.5752L56.5184 54.5482L57.6545 54.5211L57.7537 54.9088C57.9611 55.7383 57.898 55.7023 59.025 55.7023C59.7914 55.7023 60.0168 55.6752 59.9898 55.5851C59.9627 55.531 59.4308 53.926 58.7996 52.0235L57.6455 48.5792H56.5545L55.4545 48.5882L54.3004 52.0326ZM56.8881 51.6809C57.0684 52.3211 57.1947 52.8621 57.1676 52.8891C57.1406 52.9252 56.3652 52.9342 55.9414 52.9162C55.8873 52.9072 55.8692 52.835 55.8963 52.7449C55.9143 52.6637 56.0676 52.1137 56.2209 51.5276C56.3832 50.9416 56.5275 50.4727 56.5365 50.4907C56.5545 50.5088 56.7078 51.0407 56.8881 51.6809Z" fill="black"/>
<path d="M60.8393 52.1171L60.8664 55.6606L61.8402 55.6877L62.8049 55.7147V54.8401V53.9655L63.2828 53.3975C63.5353 53.0909 63.7877 52.8385 63.8238 52.8475C63.8689 52.8655 64.1754 53.4606 64.5 54.1729C64.8336 54.8942 65.1402 55.5344 65.1763 55.5885C65.2574 55.7147 67.4484 55.7598 67.5206 55.6336C67.5386 55.5975 67.0337 54.6147 66.4025 53.4516C65.7623 52.2884 65.2394 51.2966 65.2394 51.2515C65.2394 51.2065 65.7263 50.6114 66.3214 49.9261C66.9165 49.2409 67.4034 48.6548 67.4034 48.6277C67.4034 48.6007 66.8263 48.5917 66.123 48.6007L64.8336 48.6277L63.8418 49.9261L62.85 51.2155L62.823 49.8991L62.7959 48.5827H61.8131H60.8213L60.8393 52.1171Z" fill="black"/>
<path d="M75.7075 52.1139L75.7345 55.6574L78.2411 55.6845L80.7387 55.7025V54.8009V53.8992H79.2059H77.6731V51.2393V48.5795H76.6813H75.6895L75.7075 52.1139Z" fill="black"/>
<path d="M15.9033 57.8493C15.4976 58.0477 15.3623 58.3272 15.3623 58.9764C15.3623 59.4633 15.3894 59.5354 15.6689 59.8149C15.9484 60.0944 16.0205 60.1215 16.5345 60.1215C17.0304 60.1215 17.1205 60.0944 17.355 59.86C17.6886 59.5264 17.6886 59.3551 17.355 59.2378C17.1205 59.1567 17.0664 59.1657 16.9402 59.3641C16.85 59.5083 16.7148 59.5805 16.5345 59.5805C16.2189 59.5805 16.0836 59.3731 16.0836 58.8772C16.0836 58.3091 16.5435 58.0296 16.8681 58.4083C16.9763 58.5346 17.0845 58.5706 17.2468 58.5255C17.5984 58.4444 17.6435 58.3632 17.4902 58.1198C17.2017 57.678 16.4804 57.5518 15.9033 57.8493Z" fill="black"/>
<path d="M18.5214 57.8854C17.8812 58.3182 17.8181 59.337 18.3951 59.8419C18.6656 60.0854 18.7828 60.1215 19.2066 60.1215C19.8197 60.1215 20.1624 59.9501 20.3607 59.5444C20.5411 59.1657 20.5501 58.769 20.3788 58.3813C20.1804 57.9124 19.9279 57.7501 19.3509 57.705C18.9181 57.678 18.7828 57.705 18.5214 57.8854ZM19.5673 58.3542C19.7747 58.5075 19.8107 59.2018 19.6124 59.4272C19.4681 59.6075 19.0533 59.6256 18.9001 59.4723C18.8369 59.4092 18.7919 59.1747 18.7919 58.9403C18.7919 58.3091 19.1435 58.0477 19.5673 58.3542Z" fill="black"/>
<path d="M20.9531 58.8952V60.1215H21.2777H21.5933L21.5843 59.4633C21.5662 58.5526 21.5753 58.5436 21.8007 59.3551C21.999 60.0403 22.0171 60.0764 22.2786 60.1034C22.531 60.1305 22.5581 60.1034 22.6663 59.6977C22.7294 59.4633 22.8286 59.0846 22.9007 58.8591L23.0179 58.4534V59.2829L23.0269 60.1215H23.3425H23.6671L23.64 58.9223L23.613 57.7321L23.1441 57.705L22.6753 57.678L22.5851 58.0206C22.54 58.21 22.4679 58.4805 22.4318 58.6337C22.3236 59.1116 22.2786 59.0846 22.0802 58.3993L21.8908 57.7321L21.422 57.705L20.9531 57.678V58.8952Z" fill="black"/>
<path d="M24.2002 58.8984V60.1247H24.4707H24.7412V59.2951C24.7412 58.8443 24.7682 58.4927 24.7953 58.5197C24.8223 58.5468 24.9305 58.9074 25.0387 59.3222C25.2281 60.0525 25.2461 60.0796 25.5166 60.1066L25.7961 60.1337L26.0125 59.2951L26.2289 58.4566L26.256 59.2861L26.283 60.1247H26.5986H26.9142L26.8871 58.9255L26.8601 57.7353L26.3912 57.7082L25.9224 57.6812L25.7781 58.2041C25.5256 59.1238 25.5166 59.1328 25.3182 58.4025L25.1379 57.7353L24.6691 57.7082L24.2002 57.6812V58.8984Z" fill="black"/>
<path d="M27.4473 58.6428C27.4473 59.5715 27.4563 59.5985 27.7087 59.86C27.9522 60.0944 28.0333 60.1215 28.5743 60.1215C29.1153 60.1215 29.1965 60.0944 29.4399 59.86C29.6924 59.5985 29.7014 59.5715 29.7014 58.6428V57.687H29.3407H28.9801V58.5255C28.9801 59.4092 28.917 59.5805 28.5743 59.5805C28.2317 59.5805 28.1686 59.4092 28.1686 58.5255V57.687H27.8079H27.4473V58.6428Z" fill="black"/>
<path d="M30.2936 57.7501C30.2575 57.7772 30.2305 58.3272 30.2305 58.9673V60.1215H30.5911H30.9428L30.9698 59.4993L30.9969 58.8682L31.4026 59.4903C31.7993 60.0944 31.8174 60.1124 32.1961 60.1215H32.5838L32.5567 58.9223L32.5297 57.7321L32.1961 57.705L31.8625 57.678L31.8354 58.3272L31.8084 58.9764L31.4116 58.3993C31.1862 58.0837 30.9608 57.7952 30.9157 57.7591C30.7895 57.669 30.3747 57.669 30.2936 57.7501Z" fill="black"/>
<path d="M33.1662 57.7984C33.1391 57.8705 33.1301 58.4115 33.1391 59.0066L33.1662 60.0796L33.5539 60.1066L33.9416 60.1337L33.9145 58.9345L33.8875 57.7353L33.5449 57.7082C33.3285 57.6902 33.1932 57.7172 33.1662 57.7984Z" fill="black"/>
<path d="M34.3463 57.7501C34.3103 57.7772 34.2832 57.9214 34.2832 58.0657C34.2832 58.3091 34.3012 58.3182 34.6889 58.3182H35.0947V59.2198V60.1215H35.4554H35.816V59.2198V58.3182H36.1767C36.5283 58.3182 36.5373 58.3091 36.5373 58.0026V57.687H35.4734C34.8873 57.687 34.3734 57.714 34.3463 57.7501Z" fill="black"/>
<path d="M36.8223 57.7681C36.8223 57.8042 37.0026 58.1198 37.228 58.4444C37.5977 58.9944 37.6338 59.1026 37.6338 59.5895V60.1215H38.0395H38.4452V59.5985C38.4452 59.1387 38.4903 59.0214 38.851 58.4805C39.0764 58.1468 39.2567 57.8313 39.2567 57.7772C39.2567 57.7321 39.0944 57.687 38.9051 57.687C38.5805 57.687 38.5354 57.7231 38.319 58.0927C38.1838 58.3182 38.0665 58.4985 38.0485 58.4985C38.0305 58.4985 37.9042 58.3182 37.778 58.0927C37.5526 57.7231 37.5075 57.687 37.1829 57.687C36.9846 57.687 36.8223 57.7231 36.8223 57.7681Z" fill="black"/>
<path d="M40.884 57.7503C40.884 57.7864 40.884 58.3274 40.875 58.9495V60.0766L41.7226 60.1036C42.4709 60.1217 42.6062 60.1036 42.8136 59.9413C43.1381 59.6798 43.1562 59.193 42.8406 58.9946C42.6242 58.8503 42.6242 58.8413 42.7955 58.67C43.0119 58.4536 43.0119 58.2192 42.7955 57.9487C42.6422 57.7503 42.534 57.7323 41.7586 57.7052C41.2807 57.6872 40.893 57.7052 40.884 57.7503ZM42.2185 58.3724C42.2816 58.5438 42.1012 58.679 41.8217 58.679C41.6594 58.679 41.6144 58.6249 41.6144 58.4536C41.6144 58.2642 41.6594 58.2282 41.8849 58.2282C42.0562 58.2282 42.1824 58.2823 42.2185 58.3724ZM42.2906 59.3552C42.2906 59.4995 42.2185 59.5446 41.957 59.5626C41.6414 59.5897 41.6144 59.5716 41.6144 59.3552C41.6144 59.1389 41.6414 59.1208 41.957 59.1479C42.2185 59.1659 42.2906 59.211 42.2906 59.3552Z" fill="black"/>
<path d="M44.062 57.8854C43.8546 58.4534 43.3407 59.8239 43.2866 59.9592C43.2325 60.1034 43.2776 60.1215 43.6382 60.1215C43.9899 60.1215 44.053 60.0944 44.053 59.9411C44.053 59.7878 44.1161 59.7608 44.4948 59.7608C44.8645 59.7608 44.9546 59.7969 44.9997 59.9411C45.0448 60.0854 45.135 60.1215 45.4596 60.1215H45.8563L45.685 59.6887C45.5948 59.4542 45.3874 58.9132 45.2251 58.4714L44.9276 57.687H44.5309C44.2063 57.687 44.1251 57.7231 44.062 57.8854ZM44.7202 58.9673C44.7743 59.1928 44.7563 59.2198 44.5489 59.2198C44.2964 59.2198 44.2694 59.1206 44.4317 58.6788C44.5399 58.3542 44.5759 58.3903 44.7202 58.9673Z" fill="black"/>
<path d="M46.4923 57.7772C46.1046 57.9395 45.9694 58.5346 46.2759 58.805C46.3661 58.8862 46.6546 59.0214 46.9251 59.1116C47.3038 59.2288 47.412 59.31 47.412 59.4452C47.412 59.7067 46.9612 59.7428 46.8079 59.4993C46.7268 59.3641 46.6005 59.31 46.3571 59.31C45.9964 59.31 45.9513 59.3821 46.1226 59.6977C46.294 60.0313 46.4923 60.1124 47.0784 60.1215C47.5923 60.1215 47.6825 60.0944 47.9169 59.86C48.4309 59.346 48.1604 58.769 47.3128 58.5526C47.0333 58.4805 46.862 58.3903 46.844 58.2911C46.8079 58.0927 47.2587 58.0747 47.3309 58.2731C47.3669 58.3632 47.5112 58.4083 47.7366 58.4083C48.1604 58.4083 48.1964 58.246 47.8628 57.9124C47.6825 57.7231 47.5563 57.687 47.1686 57.696C46.9071 57.696 46.6005 57.7321 46.4923 57.7772Z" fill="black"/>
<path d="M48.6387 58.9042V60.1215H49.6305H50.6223V59.851V59.5805H49.9912C49.378 59.5805 49.36 59.5715 49.36 59.3551C49.36 59.1387 49.378 59.1296 49.9461 59.1296H50.5321V58.8591V58.5887H49.9461C49.4231 58.5887 49.36 58.5706 49.36 58.4083C49.36 58.246 49.4231 58.228 49.9912 58.228H50.6223V57.9575V57.687H49.6305H48.6387V58.9042Z" fill="black"/>
<path d="M51.1522 57.7411C51.1071 57.7772 51.0801 58.3272 51.0801 58.9673V60.1215H51.8014C52.667 60.1215 53.0186 59.9772 53.208 59.5354C53.3703 59.1477 53.3703 58.76 53.208 58.3813C52.9916 57.8673 52.7752 57.7501 51.9547 57.705C51.5489 57.687 51.1883 57.696 51.1522 57.7411ZM52.4596 58.4083C52.5858 58.5255 52.5588 59.2919 52.4326 59.4452C52.3694 59.5174 52.2252 59.5805 52.108 59.5805C51.9006 59.5805 51.8916 59.5534 51.8916 58.8952V58.21L52.144 58.2731C52.2793 58.3001 52.4235 58.3632 52.4596 58.4083Z" fill="black"/>
<path d="M54.8541 57.7501C54.8181 57.7772 54.791 57.9214 54.791 58.0657C54.791 58.3091 54.809 58.3182 55.1968 58.3182H55.6025V59.2198V60.1215H55.9632H56.3238V59.2198V58.3182H56.6845C57.0361 58.3182 57.0451 58.3091 57.0451 58.0026V57.687H55.9812C55.3951 57.687 54.8812 57.714 54.8541 57.7501Z" fill="black"/>
<path d="M57.8854 57.7686C57.155 58.0842 57.0288 59.3465 57.678 59.8875C58.0296 60.185 58.8231 60.2211 59.2559 59.9506C59.8329 59.5989 59.9051 58.535 59.4002 58.0211C59.1657 57.7866 59.0395 57.7415 58.5977 57.7145C58.3092 57.7055 57.9846 57.7235 57.8854 57.7686ZM58.778 58.3456C58.8682 58.3997 58.9583 58.6071 58.9944 58.7875C59.0575 59.2383 58.8501 59.5809 58.4985 59.5809C58.1469 59.5809 58.0296 59.4276 58.0296 58.9588C58.0296 58.3456 58.3903 58.0571 58.778 58.3456Z" fill="black"/>
<path d="M60.2164 57.8222C60.1803 57.9034 60.1803 58.3362 60.1984 58.787C60.2344 59.5715 60.2525 59.6165 60.523 59.86C60.7754 60.0854 60.8836 60.1215 61.3615 60.1215C62.3263 60.1215 62.5246 59.86 62.5246 58.5436V57.687H62.164H61.8033V58.4805C61.8033 59.4001 61.7041 59.6075 61.3074 59.5624L61.0369 59.5354L60.9918 58.6337L60.9467 57.7321L60.6041 57.705C60.3607 57.687 60.2525 57.714 60.2164 57.8222Z" fill="black"/>
<path d="M63.0674 58.8952V60.1215H63.428H63.7887V59.6797C63.7887 58.9854 63.951 58.9854 64.3567 59.6887C64.6002 60.1034 64.6272 60.1215 65.0059 60.1215C65.2313 60.1215 65.4117 60.1034 65.4117 60.0854C65.4117 60.0133 65.033 59.3641 64.8977 59.2108C64.7986 59.0936 64.8166 59.0395 65.0059 58.8772C65.2764 58.6428 65.3035 58.246 65.06 57.9485C64.9068 57.7591 64.7986 57.7321 63.9781 57.705L63.0674 57.669V58.8952ZM64.4649 58.4534C64.4649 58.5977 64.3928 58.6428 64.1313 58.6608C63.8158 58.6878 63.7887 58.6698 63.7887 58.4534C63.7887 58.237 63.8158 58.219 64.1313 58.246C64.3928 58.2641 64.4649 58.3091 64.4649 58.4534Z" fill="black"/>
<path d="M65.7773 58.9042V60.1215H66.138H66.4987V58.9042V57.687H66.138H65.7773V58.9042Z" fill="black"/>
<path d="M67.2924 57.9608C66.8325 58.4297 67.0579 58.8445 67.9325 59.133C68.2391 59.2322 68.3473 59.3133 68.3473 59.4486C68.3473 59.71 67.8965 59.7461 67.7612 59.5027C67.6981 59.3674 67.5719 59.3133 67.3645 59.3133C67.2022 59.3133 67.0489 59.3404 67.0128 59.3674C66.9317 59.4576 67.2022 59.9264 67.3915 60.0346C67.626 60.1519 68.5366 60.1519 68.762 60.0256C69.0416 59.8814 69.2039 59.4305 69.0957 59.115C68.9965 58.8264 68.7981 58.7002 68.212 58.5469C67.9686 58.4838 67.8063 58.3936 67.8063 58.3125C67.8063 58.1322 68.1579 58.1051 68.3022 58.2764C68.3653 58.3486 68.5547 58.4117 68.717 58.4117C68.9604 58.4117 69.0235 58.3756 69.0235 58.2404C69.0235 57.9248 68.5997 57.6903 68.0588 57.6903C67.635 57.6903 67.5268 57.7264 67.2924 57.9608Z" fill="black"/>
<path d="M69.6246 57.7501C69.5886 57.7772 69.5615 58.3272 69.5615 58.9673V60.1215H69.8771H70.1927L70.2017 59.2829V58.4534L70.3189 58.8591C70.391 59.0846 70.4902 59.4542 70.5533 59.6887C70.6615 60.0944 70.6886 60.1215 70.9501 60.1215C71.2386 60.1215 71.2476 60.1124 71.4009 59.4182C71.6173 58.5165 71.7345 58.3091 71.7165 58.9042C71.7075 59.1477 71.6984 59.5264 71.7075 59.7337C71.7255 60.1034 71.7435 60.1215 71.996 60.1215H72.2665V58.9042V57.687H71.8157C71.5271 57.687 71.3468 57.7321 71.3197 57.7952C71.3017 57.8583 71.2115 58.1739 71.1124 58.4985L70.9501 59.0846L70.8419 58.769C70.7878 58.5977 70.6976 58.2821 70.6435 58.0657L70.5443 57.687H70.1115C69.8771 57.687 69.6517 57.714 69.6246 57.7501Z" fill="black"/>
</svg>
